  0
SECTION
  2
HEADER
  9
$ACADVER
  1
AC1009
  9
$INSBASE
 10
0.0
 20
0.0
 30
0.0
  9
$EXTMIN
 10
-679.4657745881829669
 20
-107.6121505789126047
 30
0.0
  9
$EXTMAX
 10
937.1262453332033147
 20
1174.887883479985021
 30
0.0
  9
$LIMMIN
 10
0.0
 20
0.0
  9
$LIMMAX
 10
420.0
 20
297.0
  9
$ORTHOMODE
 70
     0
  9
$REGENMODE
 70
     1
  9
$FILLMODE
 70
     1
  9
$QTEXTMODE
 70
     0
  9
$MIRRTEXT
 70
     1
  9
$DRAGMODE
 70
     2
  9
$LTSCALE
 40
1.0
  9
$OSMODE
 70
    37
  9
$ATTMODE
 70
     1
  9
$TEXTSIZE
 40
3.5
  9
$TRACEWID
 40
1.0
  9
$TEXTSTYLE
  7
STANDARD
  9
$CLAYER
  8
CONSTRUCT
  9
$CELTYPE
  6
BYLAYER
  9
$CECOLOR
 62
   256
  9
$DIMSCALE
 40
1.0
  9
$DIMASZ
 40
2.5
  9
$DIMEXO
 40
0.625
  9
$DIMDLI
 40
3.75
  9
$DIMRND
 40
0.0
  9
$DIMDLE
 40
0.0
  9
$DIMEXE
 40
1.25
  9
$DIMTP
 40
0.0
  9
$DIMTM
 40
0.0
  9
$DIMTXT
 40
2.5
  9
$DIMCEN
 40
2.5
  9
$DIMTSZ
 40
0.0
  9
$DIMTOL
 70
     0
  9
$DIMLIM
 70
     0
  9
$DIMTIH
 70
     0
  9
$DIMTOH
 70
     0
  9
$DIMSE1
 70
     0
  9
$DIMSE2
 70
     0
  9
$DIMTAD
 70
     1
  9
$DIMZIN
 70
     8
  9
$DIMBLK
  1
OPEN90
  9
$DIMASO
 70
     1
  9
$DIMSHO
 70
     1
  9
$DIMPOST
  1

  9
$DIMAPOST
  1

  9
$DIMALT
 70
     0
  9
$DIMALTD
 70
     3
  9
$DIMALTF
 40
0.0393700787
  9
$DIMLFAC
 40
1.0
  9
$DIMTOFL
 70
     1
  9
$DIMTVP
 40
0.0
  9
$DIMTIX
 70
     0
  9
$DIMSOXD
 70
     0
  9
$DIMSAH
 70
     0
  9
$DIMBLK1
  1

  9
$DIMBLK2
  1

  9
$DIMSTYLE
  2
ISO-25
  9
$DIMCLRD
 70
     0
  9
$DIMCLRE
 70
     0
  9
$DIMCLRT
 70
     0
  9
$DIMTFAC
 40
1.0
  9
$DIMGAP
 40
0.625
  9
$LUNITS
 70
     2
  9
$LUPREC
 70
     1
  9
$SKETCHINC
 40
1.0
  9
$FILLETRAD
 40
4.0
  9
$AUNITS
 70
     0
  9
$AUPREC
 70
     2
  9
$MENU
  1
.
  9
$ELEVATION
 40
0.0
  9
$PELEVATION
 40
0.0
  9
$THICKNESS
 40
0.0
  9
$LIMCHECK
 70
     0
  9
$BLIPMODE
 70
     0
  9
$CHAMFERA
 40
10.0
  9
$CHAMFERB
 40
10.0
  9
$SKPOLY
 70
     0
  9
$TDCREATE
 40
2456255.8487384258769453
  9
$TDUPDATE
 40
2457847.5283582871779799
  9
$TDINDWG
 40
1.1985480556000001
  9
$TDUSRTIMER
 40
1.1985479860999999
  9
$USRTIMER
 70
     1
  9
$ANGBASE
 50
0.0
  9
$ANGDIR
 70
     0
  9
$PDMODE
 70
     0
  9
$PDSIZE
 40
-1.0
  9
$PLINEWID
 40
0.0
  9
$COORDS
 70
     1
  9
$SPLFRAME
 70
     0
  9
$SPLINETYPE
 70
     6
  9
$SPLINESEGS
 70
     8
  9
$ATTDIA
 70
     1
  9
$ATTREQ
 70
     1
  9
$HANDLING
 70
     1
  9
$HANDSEED
  5
2A17
  9
$SURFTAB1
 70
     6
  9
$SURFTAB2
 70
     6
  9
$SURFTYPE
 70
     6
  9
$SURFU
 70
     6
  9
$SURFV
 70
     6
  9
$UCSNAME
  2

  9
$UCSORG
 10
0.0
 20
0.0
 30
0.0
  9
$UCSXDIR
 10
1.0
 20
0.0
 30
0.0
  9
$UCSYDIR
 10
0.0
 20
1.0
 30
0.0
  9
$PUCSNAME
  2

  9
$PUCSORG
 10
0.0
 20
0.0
 30
0.0
  9
$PUCSXDIR
 10
1.0
 20
0.0
 30
0.0
  9
$PUCSYDIR
 10
0.0
 20
1.0
 30
0.0
  9
$USERI1
 70
     0
  9
$USERI2
 70
     0
  9
$USERI3
 70
     0
  9
$USERI4
 70
     0
  9
$USERI5
 70
     0
  9
$USERR1
 40
0.0
  9
$USERR2
 40
0.0
  9
$USERR3
 40
0.0
  9
$USERR4
 40
0.0
  9
$USERR5
 40
0.0
  9
$WORLDVIEW
 70
     1
  9
$SHADEDGE
 70
     3
  9
$SHADEDIF
 70
    70
  9
$TILEMODE
 70
     1
  9
$MAXACTVP
 70
    64
  9
$PLIMCHECK
 70
     0
  9
$PEXTMIN
 10
0.1325487613628411
 20
0.1196003559688279
 30
-0.0015258207003583
  9
$PEXTMAX
 10
11.2250189263456797
 20
7.8118199431908133
 30
0.0000000349246037
  9
$PLIMMIN
 10
-0.1249995194082185
 20
-0.1249999981226884
  9
$PLIMMAX
 10
11.5700008362297009
 20
8.1383329395234121
  9
$UNITMODE
 70
     0
  9
$VISRETAIN
 70
     1
  9
$PLINEGEN
 70
     0
  9
$PSLTSCALE
 70
     1
  0
ENDSEC
  0
SECTION
  2
TABLES
  0
TABLE
  2
VPORT
 70
     1
  0
VPORT
  2
*ACTIVE
 70
     0
 10
0.0
 20
0.0
 11
1.0
 21
1.0
 12
221.2086328877003041
 22
864.4963938791016744
 13
0.0
 23
0.0
 14
10.0
 24
10.0
 15
10.0
 25
10.0
 16
0.0
 26
0.0
 36
1.0
 17
0.0
 27
0.0
 37
0.0
 40
321.8848536318275819
 41
1.534456355283307
 42
50.0
 43
0.0
 44
0.0
 50
0.0
 51
0.0
 71
     0
 72
  2000
 73
     1
 74
     3
 75
     0
 76
     0
 77
     0
 78
     1
  0
ENDTAB
  0
TABLE
  2
LTYPE
 70
     9
  0
LTYPE
  2
CONTINUOUS
 70
     0
  3
Solid line
 72
    65
 73
     0
 40
0.0
  0
LTYPE
  2
HIDDEN
 70
     0
  3
Hidden __ __ __ __ __ __ __ __ __ __ __ __ __ __
 72
    65
 73
     2
 40
1.905
 49
1.27
 49
-0.635
  0
LTYPE
  2
PHANTOM
 70
     0
  3
Phantom ______  __  __  ______  __  __  ______
 72
    65
 73
     6
 40
12.6999999999999993
 49
6.349999999999997
 49
-1.27
 49
1.27
 49
-1.27
 49
1.27
 49
-1.27
  0
LTYPE
  2
CENTER
 70
     0
  3
Center ____ _ ____ _ ____ _ ____ _ ____ _ ____
 72
    65
 73
     4
 40
10.1600000000000001
 49
6.349999999999997
 49
-1.27
 49
1.27
 49
-1.27
  0
LTYPE
  2
CENTERX2
 70
     0
  3
Center (2x) ________  __  ________  __  _____
 72
    65
 73
     4
 40
20.3200000000000003
 49
12.6999999999999993
 49
-2.54
 49
2.54
 49
-2.54
  0
LTYPE
  2
DOT2
 70
     0
  3
Dot (.5x) ........................................
 72
    65
 73
     2
 40
0.635
 49
0.0
 49
-0.635
  0
LTYPE
  2
AI9-LTYPE1
 70
     0
  3
Illustrator Dash Style No.1
 72
    65
 73
     2
 40
8.466666666666665
 49
4.2333333333333307
 49
-4.2333333333333307
  0
LTYPE
  2
ACAD_ISO02W100
 70
     0
  3
ISO dash __ __ __ __ __ __ __ __ __ __ __ __ __
 72
    65
 73
     2
 40
15.0
 49
12.0
 49
-3.0
  0
ENDTAB
  0
TABLE
  2
LAYER
 70
    12
  0
LAYER
  2
0
 70
     0
 62
     7
  6
CONTINUOUS
  0
LAYER
  2
CONSTRUCT
 70
     0
 62
     8
  6
CONTINUOUS
  0
LAYER
  2
CUT_LINES
 70
     0
 62
     5
  6
CONTINUOUS
  0
LAYER
  2
ENGRAVE
 70
     0
 62
     7
  6
CONTINUOUS
  0
LAYER
  2
DIMENSION
 70
     0
 62
     7
  6
CONTINUOUS
  0
LAYER
  2
DEFPOINTS
 70
     0
 62
     7
  6
CONTINUOUS
  0
LAYER
  2
HOLES
 70
     2
 62
     1
  6
CONTINUOUS
  0
LAYER
  2
INNER_HOLES
 70
     0
 62
     1
  6
CONTINUOUS
  0
LAYER
  2
HILES_4MM
 70
     2
 62
     1
  6
CONTINUOUS
  0
ENDTAB
  0
TABLE
  2
STYLE
 70
     1
  0
STYLE
  2
STANDARD
 70
     0
 40
0.0
 41
1.0
 50
0.0
 71
     0
 42
3.5
  3
Arial
  4

  0
ENDTAB
  0
TABLE
  2
VIEW
 70
     0
  0
ENDTAB
  0
TABLE
  2
UCS
 70
     0
  0
ENDTAB
  0
TABLE
  2
APPID
 70
     7
  0
APPID
  2
ACAD
 70
     0
  0
APPID
  2
ACAD_NAV_VCDISPLAY
 70
     0
  0
APPID
  2
ACAD_MLEADERVER
 70
     0
  0
APPID
  2
DCO15
 70
     0
  0
APPID
  2
ACAECLAYERSTANDARD
 70
     0
  0
APPID
  2
ACCMTRANSPARENCY
 70
     0
  0
APPID
  2
ACAD_EXEMPT_FROM_CAD_STANDARDS
 70
     0
  0
ENDTAB
  0
TABLE
  2
DIMSTYLE
 70
     3
  0
DIMSTYLE
  2
ISO-25
 70
     0
  3

  4

  5
OPEN90
  6

  7

 40
1.0
 41
2.5
 42
0.625
 43
3.75
 44
1.25
 45
0.0
 46
0.0
 47
0.0
 48
0.0
140
2.5
141
2.5
142
0.0
143
0.0393700787
144
1.0
145
0.0
146
1.0
147
0.625
 71
     0
 72
     0
 73
     0
 74
     0
 75
     0
 76
     0
 77
     1
 78
     8
170
     0
171
     3
172
     1
173
     0
174
     0
175
     0
176
     0
177
     0
178
     0
  0
DIMSTYLE
  2
STANDARD
 70
     0
  3

  4

  5

  6

  7

 40
1.0
 41
0.18
 42
0.0625
 43
0.38
 44
0.18
 45
0.0
 46
0.0
 47
0.0
 48
0.0
140
0.18
141
0.09
142
0.0
143
25.3999999999999986
144
1.0
145
0.0
146
1.0
147
0.09
 71
     0
 72
     0
 73
     1
 74
     1
 75
     0
 76
     0
 77
     0
 78
     0
170
     0
171
     2
172
     0
173
     0
174
     0
175
     0
176
     0
177
     0
178
     0
  0
ENDTAB
  0
ENDSEC
  0
SECTION
  2
BLOCKS
  0
BLOCK
  8
0
  2
$MODEL_SPACE
 70
     0
 10
0.0
 20
0.0
 30
0.0
  3
$MODEL_SPACE
  1

  0
ENDBLK
  5
21
  8
0
  0
BLOCK
 67
     1
  8
0
  2
$PAPER_SPACE
 70
     0
 10
0.0
 20
0.0
 30
0.0
  3
$PAPER_SPACE
  1

  0
ENDBLK
  5
1D
 67
     1
  8
0
  0
BLOCK
  8
0
  2
*D0
 70
     1
 10
0.0
 20
0.0
 30
0.0
  3
*D0
  1

  0
LINE
  5
280A
  8
DIMENSION
 62
     0
 10
108.7845477171866975
 20
977.6239875510152615
 30
0.0
 11
94.7790110852237433
 21
977.6239875510152615
 31
0.0
  0
LINE
  5
280B
  8
DIMENSION
 62
     0
 10
108.7845477171866975
 20
804.0940872187886725
 30
0.0
 11
94.7790110852237149
 21
804.0940872187886725
 31
0.0
  0
LINE
  5
280C
  8
DIMENSION
 62
     0
 10
98.7790110852237433
 20
973.6239875510153752
 30
0.0
 11
98.7790110852237149
 21
899.0882324735787279
 31
0.0
  0
LINE
  5
280D
  8
DIMENSION
 62
     0
 10
98.7790110852237149
 20
808.0940872187887862
 30
0.0
 11
98.7790110852237149
 21
882.6298422962254335
 31
0.0
  0
INSERT
  5
280E
  8
DIMENSION
 62
     0
  2
_OPEN90
 10
98.7790110852237433
 20
977.6239875510152615
 30
0.0
 41
4.0
 42
4.0
 43
4.0
 50
90.0
  0
INSERT
  5
280F
  8
DIMENSION
 62
     0
  2
_OPEN90
 10
98.7790110852237149
 20
804.0940872187886725
 30
0.0
 41
4.0
 42
4.0
 43
4.0
 50
270.0
  0
TEXT
  8
DIMENSION
  40
4
  5
2A13
  62
0
  72
0
  71
0
 10
98.7790
 20
885.659
 30
0.00000
  1
174
  0
POINT
  5
2811
  8
DEFPOINTS
 62
     0
 10
112.7845477171866975
 20
977.6239875510152615
 30
0.0
  0
POINT
  5
2812
  8
DEFPOINTS
 62
     0
 10
112.7845477171866975
 20
804.0940872187886725
 30
0.0
  0
POINT
  5
2813
  8
DEFPOINTS
 62
     0
 10
98.7790110852237149
 20
804.0940872187886725
 30
0.0
  0
ENDBLK
  5
205
  8
0
  0
BLOCK
  8
0
  2
_OPEN90
 70
     0
 10
0.0
 20
0.0
 30
0.0
  3
_OPEN90
  1

  0
LINE
  5
207
  8
0
  6
BYBLOCK
 62
     0
 10
-0.5
 20
0.5
 30
0.0
 11
0.0
 21
0.0
 31
0.0
  0
LINE
  5
208
  8
0
  6
BYBLOCK
 62
     0
 10
0.0
 20
0.0
 30
0.0
 11
-0.5
 21
-0.5
 31
0.0
  0
LINE
  5
209
  8
0
  6
BYBLOCK
 62
     0
 10
0.0
 20
0.0
 30
0.0
 11
-1.0
 21
0.0
 31
0.0
  0
ENDBLK
  5
20B
  8
0
  0
BLOCK
  8
0
  2
*D2
 70
     1
 10
0.0
 20
0.0
 30
0.0
  3
*D2
  1

  0
LINE
  5
2814
  8
DIMENSION
 62
     0
 10
334.9336505449891774
 20
811.6420635352571935
 30
0.0
 11
334.9336505449891774
 21
797.6406738692331828
 31
0.0
  0
LINE
  5
2815
  8
DIMENSION
 62
     0
 10
98.9336505449892343
 20
811.9307361624603345
 30
0.0
 11
98.9336505449892343
 21
797.6406738692331828
 31
0.0
  0
LINE
  5
2816
  8
DIMENSION
 62
     0
 10
330.9336505449891774
 20
801.6406738692332965
 30
0.0
 11
225.4084118001051991
 21
801.6406738692332965
 31
0.0
  0
LINE
  5
2817
  8
DIMENSION
 62
     0
 10
102.9336505449892059
 20
801.6406738692332965
 30
0.0
 11
208.4588892898732979
 21
801.6406738692332965
 31
0.0
  0
INSERT
  5
2818
  8
DIMENSION
 62
     0
  2
_OPEN90
 10
334.9336505449891774
 20
801.6406738692332965
 30
0.0
 41
4.0
 42
4.0
 43
4.0
  0
INSERT
  5
2819
  8
DIMENSION
 62
     0
  2
_OPEN90
 10
98.9336505449892343
 20
801.6406738692332965
 30
0.0
 41
4.0
 42
4.0
 43
4.0
 50
180.0
  0
TEXT
  8
DIMENSION
  40
4
  5
2A14
  62
0
  72
0
  71
0
 10
216.934
 20
796.441
 30
0.00000
  1
236
  0
POINT
  5
281B
  8
DEFPOINTS
 62
     0
 10
334.9336505449891774
 20
815.6420635352570798
 30
0.0
  0
POINT
  5
281C
  8
DEFPOINTS
 62
     0
 10
98.9336505449892343
 20
815.9307361624604482
 30
0.0
  0
POINT
  5
281D
  8
DEFPOINTS
 62
     0
 10
98.9336505449892343
 20
801.6406738692332965
 30
0.0
  0
ENDBLK
  5
222
  8
0
  0
BLOCK
  8
0
  2
*D3
 70
     1
 10
0.0
 20
0.0
 30
0.0
  3
*D3
  1

  0
LINE
  5
281E
  8
DIMENSION
 62
     0
 10
-128.8920740004863887
 20
66.7799003322255089
 30
0.0
 11
-142.6583102306570083
 21
66.7799003322255089
 31
0.0
  0
LINE
  5
281F
  8
DIMENSION
 62
     0
 10
-128.6527735986942105
 20
-66.7500000000004263
 30
0.0
 11
-142.6583102306570936
 21
-66.7500000000004263
 31
0.0
  0
LINE
  5
2820
  8
DIMENSION
 62
     0
 10
-138.6583102306570083
 20
62.7799003322255018
 30
0.0
 11
-138.6583102306570083
 21
8.2441452547892151
 31
0.0
  0
LINE
  5
2821
  8
DIMENSION
 62
     0
 10
-138.6583102306570083
 20
-62.7500000000004192
 30
0.0
 11
-138.6583102306570083
 21
-8.2142449225641272
 31
0.0
  0
INSERT
  5
2822
  8
DIMENSION
 62
     0
  2
_OPEN90
 10
-138.6583102306570083
 20
66.7799003322255089
 30
0.0
 41
4.0
 42
4.0
 43
4.0
 50
90.0
  0
INSERT
  5
2823
  8
DIMENSION
 62
     0
  2
_OPEN90
 10
-138.6583102306570936
 20
-66.7500000000004263
 30
0.0
 41
4.0
 42
4.0
 43
4.0
 50
270.0
  0
TEXT
  8
DIMENSION
  40
4
  5
2A15
  62
0
  72
0
  71
0
 10
-138.658
 20
-5.18505
 30
0.00000
  1
134
  0
POINT
  5
2825
  8
DEFPOINTS
 62
     0
 10
-124.892074000486403
 20
66.7799003322255089
 30
0.0
  0
POINT
  5
2826
  8
DEFPOINTS
 62
     0
 10
-124.6527735986941963
 20
-66.7500000000004263
 30
0.0
  0
POINT
  5
2827
  8
DEFPOINTS
 62
     0
 10
-138.6583102306570936
 20
-66.7500000000004263
 30
0.0
  0
ENDBLK
  5
30D
  8
0
  0
BLOCK
  8
0
  2
*D4
 70
     1
 10
0.0
 20
0.0
 30
0.0
  3
*D4
  1

  0
LINE
  5
2828
  8
DIMENSION
 62
     0
 10
97.9999999999999716
 20
-93.5926532243799585
 30
0.0
 11
97.9999999999999716
 21
-107.6121505789126047
 31
0.0
  0
LINE
  5
2829
  8
DIMENSION
 62
     0
 10
-98.0000000000000426
 20
-93.5926532243797453
 30
0.0
 11
-98.0000000000000426
 21
-107.6121505789126047
 31
0.0
  0
LINE
  5
282A
  8
DIMENSION
 62
     0
 10
93.9999999999999574
 20
-103.6121505789126047
 30
0.0
 11
8.2291950886766294
 21
-103.6121505789126047
 31
0.0
  0
LINE
  5
282B
  8
DIMENSION
 62
     0
 10
-94.0000000000000284
 20
-103.6121505789126047
 30
0.0
 11
-8.2291950886767147
 21
-103.6121505789126047
 31
0.0
  0
INSERT
  5
282C
  8
DIMENSION
 62
     0
  2
_OPEN90
 10
97.9999999999999716
 20
-103.6121505789126047
 30
0.0
 41
4.0
 42
4.0
 43
4.0
  0
INSERT
  5
282D
  8
DIMENSION
 62
     0
  2
_OPEN90
 10
-98.0000000000000426
 20
-103.6121505789126047
 30
0.0
 41
4.0
 42
4.0
 43
4.0
 50
180.0
  0
TEXT
  8
DIMENSION
  40
4
  5
2A16
  62
0
  72
0
  71
0
 10
-4.26000e-14
 20
-108.812
 30
0.00000
  1
196
  0
POINT
  5
282F
  8
DEFPOINTS
 62
     0
 10
97.9999999999999716
 20
-89.5926532243799869
 30
0.0
  0
POINT
  5
2830
  8
DEFPOINTS
 62
     0
 10
-98.0000000000000426
 20
-89.5926532243797453
 30
0.0
  0
POINT
  5
2831
  8
DEFPOINTS
 62
     0
 10
-98.0000000000000426
 20
-103.6121505789126047
 30
0.0
  0
ENDBLK
  5
34D
  8
0
  0
BLOCK
  8
0
  2
A1_TO_A5_SIZES
 70
     4
 10
0.0
 20
0.0
 30
0.0
  3
A1_TO_A5_SIZES
  1
D:\Projects\Bantum Works\Vacuum Former\A1 to A5 Sizes.dwg
  0
ENDBLK
  5
1F7D
  8
0
  0
BLOCK
  8
0
  2
A$C604F7884
 70
     0
 10
0.0
 20
0.0
 30
0.0
  3
A$C604F7884
  1

  0
INSERT
  5
203F
  8
CONSTRUCT
  2
*U8
 10
0.0
 20
0.0
 30
0.0
  0
ENDBLK
  5
2043
  8
0
  0
BLOCK
  8
0
  2
*U8
 70
     1
 10
0.0
 20
0.0
 30
0.0
  3
*U8
  1

  0
TEXT
  5
2837
  8
ENGRAVE
 10
-0.0000013246569215
 20
55.9999992040546886
 30
0.0
 40
4.0
  1
FABO O SHANGHAI
 50
270.0
  0
ENDBLK
  5
2839
  8
0
  0
BLOCK
  8
0
  2
*U9
 70
     1
 10
0.0
 20
0.0
 30
0.0
  3
*U9
  1

  0
TEXT
  5
283B
  8
ENGRAVE
 10
53.8751008802889331
 20
758.6078396981862397
 30
0.0
 40
4.0
  1
FABO O SHANGHAI
 50
270.0
  0
ENDBLK
  5
283D
  8
0
  0
BLOCK
  8
0
  2
*U10
 70
     1
 10
0.0
 20
0.0
 30
0.0
  3
*U10
  1

  0
TEXT
  5
283F
  8
ENGRAVE
 10
128.1327038376990117
 20
635.0657627386847253
 30
0.0
 40
3.0
  1
Bed Inner - Vacuum Table
  0
TEXT
  5
2840
  8
ENGRAVE
 10
176.0590339877672079
 20
635.0657627386847253
 30
0.0
 40
3.9990000000000001
  1
 
  0
TEXT
  5
2841
  8
ENGRAVE
 10
177.5866192537972097
 20
635.0657627386847253
 30
0.0
 40
4.9987500000000011
  1
A5
  0
ENDBLK
  5
2843
  8
0
  0
BLOCK
  8
0
  2
*U11
 70
     1
 10
0.0
 20
0.0
 30
0.0
  3
*U11
  1

  0
TEXT
  5
2845
  8
ENGRAVE
 10
107.8196876429412043
 20
921.7682727357142767
 30
0.0
 40
4.0
  1
Bed Base - Vacuum Table 
 50
270.0
  0
TEXT
  5
2846
  8
ENGRAVE
 10
107.8196876429412043
 20
856.338531944445549
 30
0.0
 40
6.0
  1
A5
 50
270.0
  0
ENDBLK
  5
2848
  8
0
  0
BLOCK
  8
0
  2
*U12
 70
     1
 10
0.0
 20
0.0
 30
0.0
  3
*U12
  1

  0
TEXT
  5
284A
  8
ENGRAVE
 10
-51.2447657524853568
 20
795.9263054563541573
 30
0.0
 40
3.0
  1
Platen Bottom - Vacuum 
 50
180.0
  0
TEXT
  5
284B
  8
ENGRAVE
 10
-97.3293496542589054
 20
795.9263054563541573
 30
0.0
 40
5.0009999999999986
  1
A5
 50
180.0
  0
ENDBLK
  5
284D
  8
0
  0
BLOCK
  8
0
  2
*U13
 70
     1
 10
0.0
 20
0.0
 30
0.0
  3
*U13
  1

  0
TEXT
  5
2870
  8
ENGRAVE
 10
-628.8042748059310725
 20
1086.952447157467077
 30
0.0
 40
4.0
  1
Bed Innards 2 - Vacuum Table 
  0
TEXT
  5
2871
  8
ENGRAVE
 10
-552.8424739873770477
 20
1086.952447157467077
 30
0.0
 40
6.0
  1
A5
  0
ENDBLK
  5
2873
  8
0
  0
BLOCK
  8
0
  2
*U14
 70
     1
 10
0.0
 20
0.0
 30
0.0
  3
*U14
  1

  0
TEXT
  5
2887
  8
ENGRAVE
 10
-147.6929570558046123
 20
759.73303563381603
 30
0.0
 40
4.0
  1
FABO O SHANGHAI
 50
270.0
  0
ENDBLK
  5
2889
  8
0
  0
BLOCK
  8
0
  2
*U15
 70
     1
 10
0.0
 20
0.0
 30
0.0
  3
*U15
  1

  0
TEXT
  5
288B
  8
ENGRAVE
 10
-270.2499898791339774
 20
940.718557897959613
 30
0.0
 40
4.0
  1
Bed Innards 3 - Vacuum Table 
 50
270.0
  0
TEXT
  5
288C
  8
ENGRAVE
 10
-270.2499898791339774
 20
864.7567570794057019
 30
0.0
 40
6.0
  1
A4
 50
270.0
  0
ENDBLK
  5
288E
  8
0
  0
BLOCK
  8
0
  2
*U16
 70
     1
 10
0.0
 20
0.0
 30
0.0
  3
*U16
  1

  0
TEXT
  5
2899
  8
ENGRAVE
 10
-476.2969944955244728
 20
938.7492323500373459
 30
0.0
 40
4.0
  1
BAntum   WorKs
 50
270.0
  0
ENDBLK
  5
289B
  8
0
  0
BLOCK
  8
0
  2
*U17
 70
     1
 10
0.0
 20
0.0
 30
0.0
  3
*U17
  1

  0
TEXT
  5
289D
  8
ENGRAVE
 10
-626.939966526067451
 20
881.5856415734307348
 30
0.0
 40
4.0
  1
FABO O SHANGHAI
  0
ENDBLK
  5
289F
  8
0
  0
BLOCK
  8
0
  2
*U18
 70
     1
 10
0.0
 20
0.0
 30
0.0
  3
*U18
  1

  0
TEXT
  5
28A1
  8
ENGRAVE
 10
322.4272088479289096
 20
942.4268339303287121
 30
0.0
 40
5.0
  1
FABO O SHANGHAI
 50
270.0
  0
ENDBLK
  5
28A3
  8
0
  0
BLOCK
  8
0
  2
*U19
 70
     1
 10
0.0
 20
0.0
 30
0.0
  3
*U19
  1

  0
TEXT
  5
28A5
  8
ENGRAVE
 10
-117.2632331775593997
 20
748.4131333436630484
 30
0.0
 40
3.0
  1
Bed Top Liner - Vacuum Table
 50
270.0
  0
TEXT
  5
28A6
  8
ENGRAVE
 10
-117.2632331775593997
 20
692.8742520339769726
 30
0.0
 40
3.9990000000000001
  1
 
 50
270.0
  0
TEXT
  5
28A7
  8
ENGRAVE
 10
-117.2632331775593997
 20
691.3466667679469992
 30
0.0
 40
4.9987500000000011
  1
A5
 50
270.0
  0
ENDBLK
  5
28A9
  8
0
  0
BLOCK
  8
0
  2
*U20
 70
     1
 10
0.0
 20
0.0
 30
0.0
  3
*U20
  1

  0
TEXT
  5
28AB
  8
ENGRAVE
 10
225.5152765279933931
 20
634.806757337179647
 30
0.0
 40
4.0
  1
FABO O SHANGHAI
  0
ENDBLK
  5
28AD
  8
0
  0
BLOCK
  8
0
  2
*U21
 70
     1
 10
0.0
 20
0.0
 30
0.0
  3
*U21
  1

  0
TEXT
  5
28B8
  8
ENGRAVE
 10
-272.028553965207891
 20
1115.7204108233399893
 30
0.0
 40
4.0
  1
Bed Innards 1 - Vacuum Table 
 50
270.0
  0
TEXT
  5
28B9
  8
ENGRAVE
 10
-272.028553965207891
 20
1039.7586100047860782
 30
0.0
 40
6.0
  1
A5
 50
270.0
  0
ENDBLK
  5
28BB
  8
0
  0
BLOCK
  8
0
  2
*U22
 70
     1
 10
0.0
 20
0.0
 30
0.0
  3
*U22
  1

  0
TEXT
  5
28BD
  8
ENGRAVE
 10
-477.1287948920764848
 20
1115.1772093850240708
 30
0.0
 40
4.0
  1
FABO O SHANGHAI
 50
270.0
  0
ENDBLK
  5
28BF
  8
0
  0
BLOCK
  8
0
  2
*U23
 70
     1
 10
0.0
 20
0.0
 30
0.0
  3
*U23
  1

  0
TEXT
  5
291F
  8
ENGRAVE
 10
-58.8244048577487817
 20
973.0291501053236516
 30
0.0
 40
2.9999999999999978
  1
Platen Top  - Vacuum
 50
180.0
  0
TEXT
  5
2920
  8
ENGRAVE
 10
-98.3605576544745333
 20
973.0291501053236516
 30
0.0
 40
3.9989999999999979
  1
 
 50
180.0
  0
TEXT
  5
2921
  8
ENGRAVE
 10
-99.8881429205045634
 20
973.0291501053236516
 30
0.0
 40
4.9987499999999976
  1
A5
 50
180.0
  0
ENDBLK
  5
2923
  8
0
  0
BLOCK
  8
0
  2
*U24
 70
     1
 10
0.0
 20
0.0
 30
0.0
  3
*U24
  1

  0
TEXT
  5
2937
  8
ENGRAVE
 10
-146.0636601548781925
 20
938.9430074964316191
 30
0.0
 40
3.9999999999999978
  1
FABO O SHANGHAI
 50
270.0
  0
ENDBLK
  5
2939
  8
0
  0
ENDSEC
  0
SECTION
  2
ENTITIES
  0
DIMENSION
  5
1F9
  8
DIMENSION
  2
*D0
 10
98.7790110852237149
 20
804.0940872187886725
 30
0.0
 11
98.779011085223587
 21
890.8590373849020807
 31
0.0
 70
     0
 13
112.7845477171866975
 23
977.6239875510152615
 33
0.0
 14
112.7845477171866975
 24
804.0940872187886725
 34
0.0
 50
270.0
1001
ACAD
1000
DSTYLE
1002
{
1070
    41
1040
4.0
1070
    42
1040
4.0
1070
    44
1040
4.0
1070
    77
1070
     0
1070
   140
1040
4.0
1070
   147
1040
4.0
1070
   173
1070
     1
1070
     5
1000

1070
     6
1000
OPEN90
1070
     7
1000
OPEN90
1002
}
  0
DIMENSION
  5
216
  8
DIMENSION
  2
*D2
 10
98.9336505449892343
 20
801.6406738692332965
 30
0.0
 11
216.9336505449892059
 21
801.6406738692332965
 31
0.0
 70
     0
 13
334.9336505449891774
 23
815.6420635352570798
 33
0.0
 14
98.9336505449892343
 24
815.9307361624604482
 34
0.0
1001
ACAD
1000
DSTYLE
1002
{
1070
     7
1000
OPEN90
1070
     5
1000

1070
   173
1070
     1
1070
     6
1000
OPEN90
1070
   372
1070
    -2
1070
    44
1040
4.0
1070
    42
1040
4.0
1070
    77
1070
     0
1070
   147
1040
4.0
1070
    74
1070
     0
1070
    41
1040
4.0
1070
   140
1040
4.0
1002
}
  0
DIMENSION
  5
300
  8
DIMENSION
  2
*D3
 10
-138.6583102306570936
 20
-66.7500000000004263
 30
0.0
 11
-138.6583102306570083
 21
0.0149501661125214
 31
0.0
 70
     0
 13
-124.892074000486403
 23
66.7799003322255089
 33
0.0
 14
-124.6527735986941963
 24
-66.7500000000004263
 34
0.0
 50
270.0
1001
ACAD
1000
DSTYLE
1002
{
1070
    41
1040
4.0
1070
    42
1040
4.0
1070
    44
1040
4.0
1070
    77
1070
     0
1070
   140
1040
4.0
1070
   147
1040
4.0
1070
   173
1070
     1
1070
     5
1000

1070
     6
1000
OPEN90
1070
     7
1000
OPEN90
1002
}
  0
DIMENSION
  5
340
  8
DIMENSION
  2
*D4
 10
-98.0000000000000426
 20
-103.6121505789126047
 30
0.0
 11
-0.0000000000000426
 21
-103.6121505789126047
 31
0.0
 70
     0
 13
97.9999999999999716
 23
-89.5926532243799869
 33
0.0
 14
-98.0000000000000426
 24
-89.5926532243797453
 34
0.0
1001
ACAD
1000
DSTYLE
1002
{
1070
     7
1000
OPEN90
1070
     5
1000

1070
   173
1070
     1
1070
     6
1000
OPEN90
1070
   372
1070
    -2
1070
    44
1040
4.0
1070
    42
1040
4.0
1070
    77
1070
     0
1070
   147
1040
4.0
1070
    74
1070
     0
1070
    41
1040
4.0
1070
   140
1040
4.0
1002
}
  0
INSERT
  5
1F82
  8
CUT_LINES
  2
A1_TO_A5_SIZES
 10
819.126245333203542
 20
359.9999999999996021
 30
0.0
  0
CIRCLE
  5
22AF
  8
HOLES
 10
182.7106912005795891
 20
745.6883574800006045
 30
0.0
 40
1.5
  0
CIRCLE
  5
22B0
  8
HOLES
 10
202.7106912005797028
 20
745.6883574800006045
 30
0.0
 40
1.5
  0
CIRCLE
  5
22B1
  8
HOLES
 10
222.7106912005797881
 20
745.6883574800006045
 30
0.0
 40
1.5
  0
CIRCLE
  5
22B2
  8
HOLES
 10
242.7106912005797028
 20
745.6883574800006045
 30
0.0
 40
1.5
  0
CIRCLE
  5
22B3
  8
HOLES
 10
182.7106912005795039
 20
685.6883574800007182
 30
0.0
 40
1.5
  0
CIRCLE
  5
22B4
  8
HOLES
 10
182.7106912005795039
 20
705.6883574800007182
 30
0.0
 40
1.5
  0
CIRCLE
  5
22B5
  8
HOLES
 10
182.7106912005795039
 20
725.6883574800006045
 30
0.0
 40
1.5
  0
CIRCLE
  5
22B6
  8
HOLES
 10
192.7106912005795039
 20
675.6883574800006045
 30
0.0
 40
1.5
  0
CIRCLE
  5
22B7
  8
HOLES
 10
192.7106912005795039
 20
695.6883574800007182
 30
0.0
 40
1.5
  0
CIRCLE
  5
22B8
  8
HOLES
 10
192.7106912005795039
 20
715.6883574800006045
 30
0.0
 40
1.5
  0
CIRCLE
  5
22B9
  8
HOLES
 10
192.7106912005797028
 20
735.6883574800006045
 30
0.0
 40
1.5
  0
CIRCLE
  5
22BA
  8
HOLES
 10
202.7106912005797028
 20
685.6883574800007182
 30
0.0
 40
1.5
  0
CIRCLE
  5
22BB
  8
HOLES
 10
202.7106912005797028
 20
705.6883574800007182
 30
0.0
 40
1.5
  0
CIRCLE
  5
22BC
  8
HOLES
 10
202.7106912005797028
 20
725.6883574800006045
 30
0.0
 40
1.5
  0
CIRCLE
  5
22BD
  8
HOLES
 10
212.7106912005797028
 20
675.6883574800006045
 30
0.0
 40
1.5
  0
CIRCLE
  5
22BE
  8
HOLES
 10
212.7106912005797028
 20
695.6883574800007182
 30
0.0
 40
1.5
  0
CIRCLE
  5
22BF
  8
HOLES
 10
212.7106912005797028
 20
735.6883574800006045
 30
0.0
 40
1.5
  0
CIRCLE
  5
22C0
  8
HOLES
 10
222.7106912005795039
 20
685.6883574800007182
 30
0.0
 40
1.5
  0
CIRCLE
  5
22C1
  8
HOLES
 10
222.7106912005797881
 20
705.6883574800007182
 30
0.0
 40
1.5
  0
CIRCLE
  5
22C2
  8
HOLES
 10
222.7106912005797881
 20
725.6883574800006045
 30
0.0
 40
1.5
  0
CIRCLE
  5
22C3
  8
HOLES
 10
232.7106912005795039
 20
675.6883574800006045
 30
0.0
 40
1.5
  0
CIRCLE
  5
22C4
  8
HOLES
 10
232.7106912005795039
 20
695.6883574800007182
 30
0.0
 40
1.5
  0
CIRCLE
  5
22C5
  8
HOLES
 10
232.7106912005797028
 20
715.6883574800006045
 30
0.0
 40
1.5
  0
CIRCLE
  5
22C6
  8
HOLES
 10
232.7106912005797028
 20
735.6883574800006045
 30
0.0
 40
1.5
  0
CIRCLE
  5
22C7
  8
HOLES
 10
242.7106912005797028
 20
685.6883574800007182
 30
0.0
 40
1.5
  0
CIRCLE
  5
22C8
  8
HOLES
 10
242.7106912005797028
 20
705.6883574800007182
 30
0.0
 40
1.5
  0
CIRCLE
  5
22C9
  8
HOLES
 10
242.7106912005797028
 20
725.6883574800006045
 30
0.0
 40
1.5
  0
CIRCLE
  5
22CA
  8
HOLES
 10
252.7106912005797028
 20
675.6883574800006045
 30
0.0
 40
1.5
  0
CIRCLE
  5
22CB
  8
HOLES
 10
252.7106912005797028
 20
695.6883574800007182
 30
0.0
 40
1.5
  0
CIRCLE
  5
22CC
  8
HOLES
 10
252.7106912005797028
 20
715.6883574800004908
 30
0.0
 40
1.5
  0
CIRCLE
  5
22CD
  8
HOLES
 10
252.7106912005797028
 20
735.6883574800001497
 30
0.0
 40
1.5
  0
CIRCLE
  5
22D2
  8
HOLES
 10
252.7106912005797028
 20
745.6883574800006045
 30
0.0
 40
1.5
  0
CIRCLE
  5
22D3
  8
HOLES
 10
252.7106912005797028
 20
725.6883574800006045
 30
0.0
 40
1.5
  0
CIRCLE
  5
22D4
  8
HOLES
 10
252.7106912005797028
 20
705.6883574800007182
 30
0.0
 40
1.5
  0
CIRCLE
  5
22D5
  8
HOLES
 10
252.7106912005797028
 20
685.6883574800007182
 30
0.0
 40
1.5
  0
CIRCLE
  5
22D6
  8
HOLES
 10
242.7106912005797028
 20
735.6883574800001497
 30
0.0
 40
1.5
  0
CIRCLE
  5
22D7
  8
HOLES
 10
242.7106912005797028
 20
715.6883574800004908
 30
0.0
 40
1.5
  0
CIRCLE
  5
22D8
  8
HOLES
 10
242.7106912005797028
 20
695.6883574800007182
 30
0.0
 40
1.5
  0
CIRCLE
  5
22D9
  8
HOLES
 10
242.7106912005797028
 20
675.6883574800006045
 30
0.0
 40
1.5
  0
CIRCLE
  5
22DA
  8
HOLES
 10
232.7106912005797028
 20
725.6883574800006045
 30
0.0
 40
1.5
  0
CIRCLE
  5
22DB
  8
HOLES
 10
232.7106912005797028
 20
705.6883574800007182
 30
0.0
 40
1.5
  0
CIRCLE
  5
22DC
  8
HOLES
 10
232.7106912005795039
 20
685.6883574800007182
 30
0.0
 40
1.5
  0
CIRCLE
  5
22DD
  8
HOLES
 10
222.7106912005797881
 20
735.6883574800006045
 30
0.0
 40
1.5
  0
CIRCLE
  5
22DE
  8
HOLES
 10
222.7106912005797881
 20
715.6883574800006045
 30
0.0
 40
1.5
  0
CIRCLE
  5
22DF
  8
HOLES
 10
222.7106912005795039
 20
695.6883574800007182
 30
0.0
 40
1.5
  0
CIRCLE
  5
22E0
  8
HOLES
 10
222.7106912005795039
 20
675.6883574800006045
 30
0.0
 40
1.5
  0
CIRCLE
  5
22E1
  8
HOLES
 10
212.7106912005797028
 20
725.6883574800006045
 30
0.0
 40
1.5
  0
CIRCLE
  5
22E2
  8
HOLES
 10
212.7106912005797028
 20
705.6883574800007182
 30
0.0
 40
1.5
  0
CIRCLE
  5
22E3
  8
HOLES
 10
212.7106912005797028
 20
685.6883574800007182
 30
0.0
 40
1.5
  0
CIRCLE
  5
22E4
  8
HOLES
 10
202.7106912005797028
 20
735.6883574800006045
 30
0.0
 40
1.5
  0
CIRCLE
  5
22E5
  8
HOLES
 10
202.7106912005797028
 20
715.6883574800006045
 30
0.0
 40
1.5
  0
CIRCLE
  5
22E6
  8
HOLES
 10
202.7106912005797028
 20
695.6883574800007182
 30
0.0
 40
1.5
  0
CIRCLE
  5
22E7
  8
HOLES
 10
202.7106912005797028
 20
675.6883574800006045
 30
0.0
 40
1.5
  0
CIRCLE
  5
22E8
  8
HOLES
 10
192.7106912005797028
 20
725.6883574800006045
 30
0.0
 40
1.5
  0
CIRCLE
  5
22E9
  8
HOLES
 10
192.7106912005795039
 20
705.6883574800007182
 30
0.0
 40
1.5
  0
CIRCLE
  5
22EA
  8
HOLES
 10
192.7106912005795039
 20
685.6883574800007182
 30
0.0
 40
1.5
  0
CIRCLE
  5
22EB
  8
HOLES
 10
182.7106912005795891
 20
735.6883574800006045
 30
0.0
 40
1.5
  0
CIRCLE
  5
22EC
  8
HOLES
 10
182.7106912005795039
 20
715.6883574800006045
 30
0.0
 40
1.5
  0
CIRCLE
  5
22ED
  8
HOLES
 10
182.7106912005795039
 20
695.6883574800007182
 30
0.0
 40
1.5
  0
CIRCLE
  5
22EE
  8
HOLES
 10
182.7106912005795039
 20
675.6883574800006045
 30
0.0
 40
1.5
  0
CIRCLE
  5
22EF
  8
HOLES
 10
232.7106912005797028
 20
745.6883574800006045
 30
0.0
 40
1.5
  0
CIRCLE
  5
22F0
  8
HOLES
 10
212.7106912005797028
 20
745.6883574800006045
 30
0.0
 40
1.5
  0
CIRCLE
  5
22F1
  8
HOLES
 10
192.7106912005797028
 20
745.6883574800006045
 30
0.0
 40
1.5
  0
INSERT
  5
22FE
  8
CONSTRUCT
  2
*U9
 10
0.0
 20
0.0
 30
0.0
  0
INSERT
  5
22FF
  8
CONSTRUCT
  2
*U10
 10
0.0
 20
0.0
 30
0.0
  0
INSERT
  5
2300
  8
CONSTRUCT
  2
*U11
 10
0.0
 20
0.0
 30
0.0
  0
INSERT
  5
2301
  8
CONSTRUCT
  2
*U12
 10
0.0
 20
0.0
 30
0.0
  0
POLYLINE
  5
2302
  8
CUT_LINES
 66
     1
 10
0.0
 20
0.0
 30
0.0
 70
     1
  0
VERTEX
  5
284E
  8
CUT_LINES
 10
-127.6433554018802994
 20
653.938357480000036
 30
0.0
  0
VERTEX
  5
284F
  8
CUT_LINES
 10
-127.6433554018802994
 20
777.4682578122258292
 30
0.0
 42
-0.414213562373095
  0
VERTEX
  5
2850
  8
CUT_LINES
 10
-122.6433554018802994
 20
782.4682578122258292
 30
0.0
  0
VERTEX
  5
2851
  8
CUT_LINES
 10
63.3566445981196509
 20
782.4682578122258292
 30
0.0
 42
-0.4142135623730951
  0
VERTEX
  5
2852
  8
CUT_LINES
 10
68.3566445981194306
 20
777.4682578122258292
 30
0.0
  0
VERTEX
  5
2853
  8
CUT_LINES
 10
68.3566445981196296
 20
653.938357480000036
 30
0.0
 42
-0.4142135623730951
  0
VERTEX
  5
2854
  8
CUT_LINES
 10
63.3566445981196296
 20
648.938357480000036
 30
0.0
  0
VERTEX
  5
2855
  8
CUT_LINES
 10
-122.6433554018803989
 20
648.938357480000036
 30
0.0
 42
-0.4142135623730953
  0
SEQEND
  5
2856
  8
CUT_LINES
  0
POLYLINE
  5
2303
  8
CUT_LINES
 66
     1
 10
0.0
 20
0.0
 30
0.0
 70
     1
  0
VERTEX
  5
2857
  8
CUT_LINES
 10
112.6253462676954058
 20
978.19764493313005
 30
0.0
 42
0.4142135623730951
  0
VERTEX
  5
2858
  8
CUT_LINES
 10
99.62534626769542
 20
965.1976449331301637
 30
0.0
  0
VERTEX
  5
2859
  8
CUT_LINES
 10
99.6253462676951926
 20
817.6677446009036885
 30
0.0
 42
0.4142135623730951
  0
VERTEX
  5
285A
  8
CUT_LINES
 10
112.6253462676952068
 20
804.6677446009035748
 30
0.0
  0
VERTEX
  5
285B
  8
CUT_LINES
 10
322.6253462676951926
 20
804.6677446009035748
 30
0.0
 42
0.4142135623730951
  0
VERTEX
  5
285C
  8
CUT_LINES
 10
335.6253462676951926
 20
817.6677446009036885
 30
0.0
  0
VERTEX
  5
285D
  8
CUT_LINES
 10
335.62534626769542
 20
965.1976449331301637
 30
0.0
 42
0.4142135623730951
  0
VERTEX
  5
285E
  8
CUT_LINES
 10
322.62534626769542
 20
978.19764493313005
 30
0.0
  0
SEQEND
  5
285F
  8
CUT_LINES
  0
POLYLINE
  5
2304
  8
CUT_LINES
 66
     1
 10
0.0
 20
0.0
 30
0.0
  0
VERTEX
  5
2860
  8
CUT_LINES
 10
330.71069129795751
 20
663.2695756236603302
 30
0.0
 42
-0.1780801749145204
  0
VERTEX
  5
2861
  8
CUT_LINES
 10
330.7106912005796744
 20
768.1071393721581444
 30
0.0
  0
VERTEX
  5
2862
  8
CUT_LINES
 10
330.7106912005796744
 20
789.4682578122273071
 30
0.0
 42
0.4142135623730951
  0
VERTEX
  5
2863
  8
CUT_LINES
 10
317.7106912005796744
 20
802.4682578122273071
 30
0.0
  0
VERTEX
  5
2864
  8
CUT_LINES
 10
107.7108402092576966
 20
802.4682578122275345
 30
0.0
 42
0.4142135623730951
  0
VERTEX
  5
2865
  8
CUT_LINES
 10
94.710840209257583
 20
789.4682578122275345
 30
0.0
  0
VERTEX
  5
2866
  8
CUT_LINES
 10
94.7108402092562045
 20
768.1883574800050383
 30
0.0
 42
-0.1783742124822089
  0
VERTEX
  5
2867
  8
CUT_LINES
 10
94.7108402092576966
 20
663.1883574800004908
 30
0.0
  0
VERTEX
  5
2868
  8
CUT_LINES
 10
94.7108402092576966
 20
641.9383574799984444
 30
0.0
 42
0.4142135623730951
  0
VERTEX
  5
2869
  8
CUT_LINES
 10
107.7108402092576966
 20
628.9383574799982171
 30
0.0
  0
VERTEX
  5
286A
  8
CUT_LINES
 10
317.7106912005796744
 20
628.9383574799982171
 30
0.0
 42
0.4142135623730951
  0
VERTEX
  5
286B
  8
CUT_LINES
 10
330.7106912005796744
 20
641.9383574799982171
 30
0.0
  0
VERTEX
  5
286C
  8
CUT_LINES
 10
330.7106912005796744
 20
663.2695755878431783
 30
0.0
 42
-0.1780801744362128
  0
VERTEX
  5
286D
  8
CUT_LINES
 10
330.7106912005796744
 20
768.1071393721581444
 30
0.0
 42
-0.1780801744362128
  0
SEQEND
  5
286E
  8
CUT_LINES
  0
CIRCLE
  5
2305
  8
HOLES
 10
192.7106912005797028
 20
775.6883574800006045
 30
0.0
 40
1.5
  0
CIRCLE
  5
2306
  8
HOLES
 10
212.7106912005797028
 20
775.6883574800006045
 30
0.0
 40
1.5
  0
CIRCLE
  5
2307
  8
HOLES
 10
232.7106912005797028
 20
775.6883574800006045
 30
0.0
 40
1.5
  0
CIRCLE
  5
2308
  8
HOLES
 10
182.7106912005795891
 20
765.6883574800006045
 30
0.0
 40
1.5
  0
CIRCLE
  5
2309
  8
HOLES
 10
192.7106912005797028
 20
755.6883574800003771
 30
0.0
 40
1.5
  0
CIRCLE
  5
230A
  8
HOLES
 10
202.7106912005797881
 20
765.6883574800006045
 30
0.0
 40
1.5
  0
CIRCLE
  5
230B
  8
HOLES
 10
212.7106912005797028
 20
755.6883574800003771
 30
0.0
 40
1.5
  0
CIRCLE
  5
230C
  8
HOLES
 10
222.7106912005797881
 20
765.6883574800006045
 30
0.0
 40
1.5
  0
CIRCLE
  5
230D
  8
HOLES
 10
232.7106912005797028
 20
755.6883574800003771
 30
0.0
 40
1.5
  0
CIRCLE
  5
230E
  8
HOLES
 10
242.7106912005797028
 20
765.6883574800004908
 30
0.0
 40
1.5
  0
CIRCLE
  5
230F
  8
HOLES
 10
252.7106912005797028
 20
755.6883574800003771
 30
0.0
 40
1.5
  0
CIRCLE
  5
2310
  8
HOLES
 10
252.7106912005797028
 20
775.6883574800006045
 30
0.0
 40
1.5
  0
CIRCLE
  5
2311
  8
HOLES
 10
252.7106912005797028
 20
765.6883574800004908
 30
0.0
 40
1.5
  0
CIRCLE
  5
2312
  8
HOLES
 10
242.7106912005797028
 20
755.6883574800003771
 30
0.0
 40
1.5
  0
CIRCLE
  5
2313
  8
HOLES
 10
232.7106912005797028
 20
765.6883574800006045
 30
0.0
 40
1.5
  0
CIRCLE
  5
2314
  8
HOLES
 10
222.7106912005797881
 20
755.6883574800003771
 30
0.0
 40
1.5
  0
CIRCLE
  5
2315
  8
HOLES
 10
212.7106912005797028
 20
765.6883574800006045
 30
0.0
 40
1.5
  0
CIRCLE
  5
2316
  8
HOLES
 10
202.7106912005797028
 20
755.6883574800003771
 30
0.0
 40
1.5
  0
CIRCLE
  5
2317
  8
HOLES
 10
192.7106912005797028
 20
765.6883574800006045
 30
0.0
 40
1.5
  0
CIRCLE
  5
2318
  8
HOLES
 10
182.7106912005795891
 20
755.6883574800003771
 30
0.0
 40
1.5
  0
CIRCLE
  5
2319
  8
HOLES
 10
242.7106912005797028
 20
775.6883574800006045
 30
0.0
 40
1.5
  0
CIRCLE
  5
231A
  8
HOLES
 10
222.7106912005797881
 20
775.6883574800006045
 30
0.0
 40
1.5
  0
CIRCLE
  5
231B
  8
HOLES
 10
202.7106912005797881
 20
775.6883574800006045
 30
0.0
 40
1.5
  0
CIRCLE
  5
231C
  8
HOLES
 10
182.7106912005795891
 20
775.6883574800006045
 30
0.0
 40
1.5
  0
CIRCLE
  5
231D
  8
HOLES
 10
182.7106912005795039
 20
655.6883574800007182
 30
0.0
 40
1.5
  0
CIRCLE
  5
231E
  8
HOLES
 10
192.7106912005795039
 20
665.6883574800007182
 30
0.0
 40
1.5
  0
CIRCLE
  5
231F
  8
HOLES
 10
202.7106912005797028
 20
655.6883574800007182
 30
0.0
 40
1.5
  0
CIRCLE
  5
2320
  8
HOLES
 10
212.7106912005797028
 20
665.6883574800007182
 30
0.0
 40
1.5
  0
CIRCLE
  5
2321
  8
HOLES
 10
222.7106912005795039
 20
655.6883574800007182
 30
0.0
 40
1.5
  0
CIRCLE
  5
2322
  8
HOLES
 10
232.7106912005795039
 20
665.6883574800007182
 30
0.0
 40
1.5
  0
CIRCLE
  5
2323
  8
HOLES
 10
242.7106912005797028
 20
655.6883574800007182
 30
0.0
 40
1.5
  0
CIRCLE
  5
2324
  8
HOLES
 10
252.7106912005797028
 20
665.6883574800007182
 30
0.0
 40
1.5
  0
CIRCLE
  5
2325
  8
HOLES
 10
252.7106912005797028
 20
655.6883574800007182
 30
0.0
 40
1.5
  0
CIRCLE
  5
2326
  8
HOLES
 10
242.7106912005797028
 20
665.6883574800007182
 30
0.0
 40
1.5
  0
CIRCLE
  5
2327
  8
HOLES
 10
232.7106912005795039
 20
655.6883574800007182
 30
0.0
 40
1.5
  0
CIRCLE
  5
2328
  8
HOLES
 10
222.7106912005795039
 20
665.6883574800007182
 30
0.0
 40
1.5
  0
CIRCLE
  5
2329
  8
HOLES
 10
212.7106912005797028
 20
655.6883574800007182
 30
0.0
 40
1.5
  0
CIRCLE
  5
232A
  8
HOLES
 10
202.7106912005797028
 20
665.6883574800007182
 30
0.0
 40
1.5
  0
CIRCLE
  5
232B
  8
HOLES
 10
192.7106912005795039
 20
655.6883574800007182
 30
0.0
 40
1.5
  0
CIRCLE
  5
232C
  8
HOLES
 10
182.7106912005795039
 20
665.6883574800007182
 30
0.0
 40
1.5
  0
CIRCLE
  5
232D
  8
HOLES
 10
172.7106912005795039
 20
665.6883574800007182
 30
0.0
 40
1.5
  0
CIRCLE
  5
232E
  8
HOLES
 10
172.7106912005795039
 20
655.6883574800007182
 30
0.0
 40
1.5
  0
CIRCLE
  5
232F
  8
HOLES
 10
172.7106912005795891
 20
775.6883574800006045
 30
0.0
 40
1.5
  0
CIRCLE
  5
2330
  8
HOLES
 10
172.7106912005795891
 20
755.6883574800003771
 30
0.0
 40
1.5
  0
CIRCLE
  5
2331
  8
HOLES
 10
172.7106912005795891
 20
765.6883574800006045
 30
0.0
 40
1.5
  0
CIRCLE
  5
2332
  8
HOLES
 10
172.7106912005795039
 20
675.6883574800006045
 30
0.0
 40
1.5
  0
CIRCLE
  5
2333
  8
HOLES
 10
172.7106912005795039
 20
695.6883574800007182
 30
0.0
 40
1.5
  0
CIRCLE
  5
2334
  8
HOLES
 10
172.7106912005795039
 20
715.6883574800006045
 30
0.0
 40
1.5
  0
CIRCLE
  5
2335
  8
HOLES
 10
172.7106912005795039
 20
735.6883574800006045
 30
0.0
 40
1.5
  0
CIRCLE
  5
2336
  8
HOLES
 10
172.7106912005795039
 20
725.6883574800006045
 30
0.0
 40
1.5
  0
CIRCLE
  5
2337
  8
HOLES
 10
172.7106912005795039
 20
705.6883574800007182
 30
0.0
 40
1.5
  0
CIRCLE
  5
2338
  8
HOLES
 10
172.7106912005795039
 20
685.6883574800007182
 30
0.0
 40
1.5
  0
CIRCLE
  5
2339
  8
HOLES
 10
172.7106912005795891
 20
745.6883574800006045
 30
0.0
 40
1.5
  0
INSERT
  5
233E
  8
CONSTRUCT
  2
*U13
 10
0.0
 20
0.0
 30
0.0
  0
POLYLINE
  5
233F
  8
ENGRAVE
 66
     1
 10
0.0
 20
0.0
 30
0.0
 70
     1
  0
VERTEX
  5
2874
  8
ENGRAVE
 10
109.7106912005794044
 20
653.9383574800003771
 30
0.0
  0
VERTEX
  5
2875
  8
ENGRAVE
 10
109.7106912005795039
 20
777.4682578122263976
 30
0.0
 42
-0.4142135623730968
  0
VERTEX
  5
2876
  8
ENGRAVE
 10
119.7106912005795039
 20
787.4682578122261702
 30
0.0
  0
VERTEX
  5
2877
  8
ENGRAVE
 10
305.7106912005795039
 20
787.4682578122261702
 30
0.0
 42
-0.4142135623730951
  0
VERTEX
  5
2878
  8
ENGRAVE
 10
315.7106912005795039
 20
777.4682578122263976
 30
0.0
  0
VERTEX
  5
2879
  8
ENGRAVE
 10
315.7106912005795039
 20
653.9383574800007182
 30
0.0
 42
-0.4142135623730951
  0
VERTEX
  5
287A
  8
ENGRAVE
 10
305.7106912005795039
 20
643.9383574800007182
 30
0.0
  0
VERTEX
  5
287B
  8
ENGRAVE
 10
119.7106912005794044
 20
643.9383574800004908
 30
0.0
 42
-0.4142135623730951
  0
SEQEND
  5
287C
  8
ENGRAVE
  0
POLYLINE
  5
2340
  8
ENGRAVE
 66
     1
 10
0.0
 20
0.0
 30
0.0
 70
     1
  0
VERTEX
  5
287D
  8
ENGRAVE
 10
-132.6433554018803136
 20
653.938357480000036
 30
0.0
  0
VERTEX
  5
287E
  8
ENGRAVE
 10
-132.6433554018803136
 20
777.4682578122258292
 30
0.0
 42
-0.4142135623730968
  0
VERTEX
  5
287F
  8
ENGRAVE
 10
-122.6433554018802994
 20
787.4682578122258292
 30
0.0
  0
VERTEX
  5
2880
  8
ENGRAVE
 10
63.3566445981194306
 20
787.4682578122258292
 30
0.0
 42
-0.4142135623730951
  0
VERTEX
  5
2881
  8
ENGRAVE
 10
73.3566445981194448
 20
777.4682578122258292
 30
0.0
  0
VERTEX
  5
2882
  8
ENGRAVE
 10
73.3566445981194022
 20
653.938357480000036
 30
0.0
 42
-0.4142135623730951
  0
VERTEX
  5
2883
  8
ENGRAVE
 10
63.3566445981196296
 20
643.938357480000036
 30
0.0
  0
VERTEX
  5
2884
  8
ENGRAVE
 10
-122.6433554018803989
 20
643.938357480000036
 30
0.0
 42
-0.4142135623730951
  0
SEQEND
  5
2885
  8
ENGRAVE
  0
INSERT
  5
2341
  8
CONSTRUCT
  2
*U14
 10
0.0
 20
0.0
 30
0.0
  0
CIRCLE
  5
2345
  8
HOLES
 10
262.7106912005796744
 20
745.6883574800006045
 30
0.0
 40
1.5
  0
CIRCLE
  5
2346
  8
HOLES
 10
282.7106912005796744
 20
745.6883574800006045
 30
0.0
 40
1.5
  0
CIRCLE
  5
2347
  8
HOLES
 10
262.7106912005796744
 20
685.6883574800007182
 30
0.0
 40
1.5
  0
CIRCLE
  5
2348
  8
HOLES
 10
262.7106912005796744
 20
705.6883574800007182
 30
0.0
 40
1.5
  0
CIRCLE
  5
2349
  8
HOLES
 10
262.7106912005796744
 20
725.6883574800006045
 30
0.0
 40
1.5
  0
CIRCLE
  5
234A
  8
HOLES
 10
272.7106912005795039
 20
675.6883574800006045
 30
0.0
 40
1.5
  0
CIRCLE
  5
234B
  8
HOLES
 10
272.7106912005795039
 20
695.6883574800007182
 30
0.0
 40
1.5
  0
CIRCLE
  5
234C
  8
HOLES
 10
272.7106912005797881
 20
715.6883574800004908
 30
0.0
 40
1.5
  0
CIRCLE
  5
234D
  8
HOLES
 10
272.7106912005797881
 20
735.6883574800001497
 30
0.0
 40
1.5
  0
CIRCLE
  5
234E
  8
HOLES
 10
282.7106912005796744
 20
685.6883574800007182
 30
0.0
 40
1.5
  0
CIRCLE
  5
234F
  8
HOLES
 10
282.7106912005796744
 20
705.6883574800007182
 30
0.0
 40
1.5
  0
CIRCLE
  5
2350
  8
HOLES
 10
282.7106912005796744
 20
725.6883574800006045
 30
0.0
 40
1.5
  0
CIRCLE
  5
2351
  8
HOLES
 10
292.7106912005796744
 20
675.6883574800006045
 30
0.0
 40
1.5
  0
CIRCLE
  5
2352
  8
HOLES
 10
292.7106912005796744
 20
695.6883574800007182
 30
0.0
 40
1.5
  0
CIRCLE
  5
2353
  8
HOLES
 10
292.7106912005796744
 20
735.6883574800001497
 30
0.0
 40
1.5
  0
CIRCLE
  5
2354
  8
HOLES
 10
292.7106912005796744
 20
745.6883574800006045
 30
0.0
 40
1.5
  0
CIRCLE
  5
2355
  8
HOLES
 10
292.7106912005796744
 20
725.6883574800006045
 30
0.0
 40
1.5
  0
CIRCLE
  5
2356
  8
HOLES
 10
292.7106912005796744
 20
705.6883574800007182
 30
0.0
 40
1.5
  0
CIRCLE
  5
2357
  8
HOLES
 10
292.7106912005796744
 20
685.6883574800007182
 30
0.0
 40
1.5
  0
CIRCLE
  5
2358
  8
HOLES
 10
282.7106912005796744
 20
735.6883574800001497
 30
0.0
 40
1.5
  0
CIRCLE
  5
2359
  8
HOLES
 10
282.7106912005796744
 20
715.6883574800004908
 30
0.0
 40
1.5
  0
CIRCLE
  5
235A
  8
HOLES
 10
282.7106912005796744
 20
695.6883574800007182
 30
0.0
 40
1.5
  0
CIRCLE
  5
235B
  8
HOLES
 10
282.7106912005796744
 20
675.6883574800006045
 30
0.0
 40
1.5
  0
CIRCLE
  5
235C
  8
HOLES
 10
272.7106912005797881
 20
725.6883574800006045
 30
0.0
 40
1.5
  0
CIRCLE
  5
235D
  8
HOLES
 10
272.7106912005797881
 20
705.6883574800007182
 30
0.0
 40
1.5
  0
CIRCLE
  5
235E
  8
HOLES
 10
272.7106912005795039
 20
685.6883574800007182
 30
0.0
 40
1.5
  0
CIRCLE
  5
235F
  8
HOLES
 10
262.7106912005796744
 20
735.6883574800001497
 30
0.0
 40
1.5
  0
CIRCLE
  5
2360
  8
HOLES
 10
262.7106912005796744
 20
715.6883574800004908
 30
0.0
 40
1.5
  0
CIRCLE
  5
2361
  8
HOLES
 10
262.7106912005796744
 20
695.6883574800007182
 30
0.0
 40
1.5
  0
CIRCLE
  5
2362
  8
HOLES
 10
262.7106912005796744
 20
675.6883574800006045
 30
0.0
 40
1.5
  0
CIRCLE
  5
2363
  8
HOLES
 10
272.7106912005797881
 20
745.6883574800006045
 30
0.0
 40
1.5
  0
CIRCLE
  5
2364
  8
HOLES
 10
272.7106912005797881
 20
775.6883574800006045
 30
0.0
 40
1.5
  0
CIRCLE
  5
2365
  8
HOLES
 10
262.7106912005796744
 20
765.6883574800004908
 30
0.0
 40
1.5
  0
CIRCLE
  5
2366
  8
HOLES
 10
272.7106912005797881
 20
755.6883574800003771
 30
0.0
 40
1.5
  0
CIRCLE
  5
2367
  8
HOLES
 10
282.7106912005796744
 20
765.6883574800004908
 30
0.0
 40
1.5
  0
CIRCLE
  5
2368
  8
HOLES
 10
292.7106912005796744
 20
755.6883574800003771
 30
0.0
 40
1.5
  0
CIRCLE
  5
2369
  8
HOLES
 10
292.7106912005796744
 20
775.6883574800006045
 30
0.0
 40
1.5
  0
CIRCLE
  5
236A
  8
HOLES
 10
292.7106912005796744
 20
765.6883574800004908
 30
0.0
 40
1.5
  0
CIRCLE
  5
236B
  8
HOLES
 10
282.7106912005796744
 20
755.6883574800003771
 30
0.0
 40
1.5
  0
CIRCLE
  5
236C
  8
HOLES
 10
272.7106912005797881
 20
765.6883574800004908
 30
0.0
 40
1.5
  0
CIRCLE
  5
236D
  8
HOLES
 10
262.7106912005796744
 20
755.6883574800003771
 30
0.0
 40
1.5
  0
CIRCLE
  5
236E
  8
HOLES
 10
282.7106912005796744
 20
775.6883574800006045
 30
0.0
 40
1.5
  0
CIRCLE
  5
236F
  8
HOLES
 10
262.7106912005796744
 20
775.6883574800006045
 30
0.0
 40
1.5
  0
CIRCLE
  5
2370
  8
HOLES
 10
262.7106912005796744
 20
655.6883574800007182
 30
0.0
 40
1.5
  0
CIRCLE
  5
2371
  8
HOLES
 10
272.7106912005795039
 20
665.6883574800007182
 30
0.0
 40
1.5
  0
CIRCLE
  5
2372
  8
HOLES
 10
282.7106912005796744
 20
655.6883574800007182
 30
0.0
 40
1.5
  0
CIRCLE
  5
2373
  8
HOLES
 10
292.7106912005796744
 20
665.6883574800007182
 30
0.0
 40
1.5
  0
CIRCLE
  5
2374
  8
HOLES
 10
292.7106912005796744
 20
655.6883574800007182
 30
0.0
 40
1.5
  0
CIRCLE
  5
2375
  8
HOLES
 10
282.7106912005796744
 20
665.6883574800007182
 30
0.0
 40
1.5
  0
CIRCLE
  5
2376
  8
HOLES
 10
272.7106912005795039
 20
655.6883574800007182
 30
0.0
 40
1.5
  0
CIRCLE
  5
2377
  8
HOLES
 10
262.7106912005796744
 20
665.6883574800007182
 30
0.0
 40
1.5
  0
CIRCLE
  5
2378
  8
HOLES
 10
142.7106912005797881
 20
745.6883574800006045
 30
0.0
 40
1.5
  0
CIRCLE
  5
2379
  8
HOLES
 10
162.7106912005797881
 20
745.6883574800006045
 30
0.0
 40
1.5
  0
CIRCLE
  5
237A
  8
HOLES
 10
142.7106912005797881
 20
685.6883574800007182
 30
0.0
 40
1.5
  0
CIRCLE
  5
237B
  8
HOLES
 10
142.7106912005797881
 20
705.6883574800007182
 30
0.0
 40
1.5
  0
CIRCLE
  5
237C
  8
HOLES
 10
142.7106912005797881
 20
725.6883574800006045
 30
0.0
 40
1.5
  0
CIRCLE
  5
237D
  8
HOLES
 10
152.7106912005797881
 20
675.6883574800006045
 30
0.0
 40
1.5
  0
CIRCLE
  5
237E
  8
HOLES
 10
152.7106912005797881
 20
695.6883574800007182
 30
0.0
 40
1.5
  0
CIRCLE
  5
237F
  8
HOLES
 10
152.7106912005797881
 20
715.6883574800006045
 30
0.0
 40
1.5
  0
CIRCLE
  5
2380
  8
HOLES
 10
152.7106912005797881
 20
735.6883574800006045
 30
0.0
 40
1.5
  0
CIRCLE
  5
2381
  8
HOLES
 10
162.7106912005797881
 20
685.6883574800007182
 30
0.0
 40
1.5
  0
CIRCLE
  5
2382
  8
HOLES
 10
162.7106912005797881
 20
705.6883574800007182
 30
0.0
 40
1.5
  0
CIRCLE
  5
2383
  8
HOLES
 10
162.7106912005797881
 20
725.6883574800006045
 30
0.0
 40
1.5
  0
CIRCLE
  5
2384
  8
HOLES
 10
162.7106912005797881
 20
735.6883574800006045
 30
0.0
 40
1.5
  0
CIRCLE
  5
2385
  8
HOLES
 10
162.7106912005797881
 20
715.6883574800006045
 30
0.0
 40
1.5
  0
CIRCLE
  5
2386
  8
HOLES
 10
162.7106912005797881
 20
695.6883574800007182
 30
0.0
 40
1.5
  0
CIRCLE
  5
2387
  8
HOLES
 10
162.7106912005797881
 20
675.6883574800006045
 30
0.0
 40
1.5
  0
CIRCLE
  5
2388
  8
HOLES
 10
152.7106912005797881
 20
725.6883574800006045
 30
0.0
 40
1.5
  0
CIRCLE
  5
2389
  8
HOLES
 10
152.7106912005797881
 20
705.6883574800007182
 30
0.0
 40
1.5
  0
CIRCLE
  5
238A
  8
HOLES
 10
152.7106912005797881
 20
685.6883574800007182
 30
0.0
 40
1.5
  0
CIRCLE
  5
238B
  8
HOLES
 10
142.7106912005797881
 20
735.6883574800006045
 30
0.0
 40
1.5
  0
CIRCLE
  5
238C
  8
HOLES
 10
142.7106912005797881
 20
715.6883574800006045
 30
0.0
 40
1.5
  0
CIRCLE
  5
238D
  8
HOLES
 10
142.7106912005797881
 20
695.6883574800007182
 30
0.0
 40
1.5
  0
CIRCLE
  5
238E
  8
HOLES
 10
142.7106912005797881
 20
675.6883574800006045
 30
0.0
 40
1.5
  0
CIRCLE
  5
238F
  8
HOLES
 10
152.7106912005797881
 20
745.6883574800006045
 30
0.0
 40
1.5
  0
CIRCLE
  5
2390
  8
HOLES
 10
152.7106912005797881
 20
775.6883574800006045
 30
0.0
 40
1.5
  0
CIRCLE
  5
2391
  8
HOLES
 10
142.7106912005797881
 20
765.6883574800006045
 30
0.0
 40
1.5
  0
CIRCLE
  5
2392
  8
HOLES
 10
152.7106912005797881
 20
755.6883574800003771
 30
0.0
 40
1.5
  0
CIRCLE
  5
2393
  8
HOLES
 10
162.7106912005797881
 20
765.6883574800006045
 30
0.0
 40
1.5
  0
CIRCLE
  5
2394
  8
HOLES
 10
162.7106912005797881
 20
755.6883574800003771
 30
0.0
 40
1.5
  0
CIRCLE
  5
2395
  8
HOLES
 10
152.7106912005797881
 20
765.6883574800006045
 30
0.0
 40
1.5
  0
CIRCLE
  5
2396
  8
HOLES
 10
142.7106912005797881
 20
755.6883574800003771
 30
0.0
 40
1.5
  0
CIRCLE
  5
2397
  8
HOLES
 10
162.7106912005797881
 20
775.6883574800006045
 30
0.0
 40
1.5
  0
CIRCLE
  5
2398
  8
HOLES
 10
142.7106912005797881
 20
775.6883574800006045
 30
0.0
 40
1.5
  0
CIRCLE
  5
2399
  8
HOLES
 10
142.7106912005797881
 20
655.6883574800007182
 30
0.0
 40
1.5
  0
CIRCLE
  5
239A
  8
HOLES
 10
152.7106912005797881
 20
665.6883574800007182
 30
0.0
 40
1.5
  0
CIRCLE
  5
239B
  8
HOLES
 10
162.7106912005797881
 20
655.6883574800007182
 30
0.0
 40
1.5
  0
CIRCLE
  5
239C
  8
HOLES
 10
162.7106912005797881
 20
665.6883574800007182
 30
0.0
 40
1.5
  0
CIRCLE
  5
239D
  8
HOLES
 10
152.7106912005797881
 20
655.6883574800007182
 30
0.0
 40
1.5
  0
CIRCLE
  5
239E
  8
HOLES
 10
142.7106912005797881
 20
665.6883574800007182
 30
0.0
 40
1.5
  0
CIRCLE
  5
239F
  8
HOLES
 10
132.7106912005795039
 20
665.6883574800007182
 30
0.0
 40
1.5
  0
CIRCLE
  5
23A0
  8
HOLES
 10
132.7106912005795039
 20
655.6883574800007182
 30
0.0
 40
1.5
  0
CIRCLE
  5
23A1
  8
HOLES
 10
132.7106912005797028
 20
775.6883574800006045
 30
0.0
 40
1.5
  0
CIRCLE
  5
23A2
  8
HOLES
 10
132.7106912005797028
 20
755.6883574800003771
 30
0.0
 40
1.5
  0
CIRCLE
  5
23A3
  8
HOLES
 10
132.7106912005797028
 20
765.6883574800006045
 30
0.0
 40
1.5
  0
CIRCLE
  5
23A4
  8
HOLES
 10
132.7106912005795039
 20
675.6883574800006045
 30
0.0
 40
1.5
  0
CIRCLE
  5
23A5
  8
HOLES
 10
132.7106912005795039
 20
695.6883574800007182
 30
0.0
 40
1.5
  0
CIRCLE
  5
23A6
  8
HOLES
 10
132.7106912005797028
 20
735.6883574800006045
 30
0.0
 40
1.5
  0
CIRCLE
  5
23A7
  8
HOLES
 10
132.7106912005795039
 20
725.6883574800006045
 30
0.0
 40
1.5
  0
CIRCLE
  5
23A8
  8
HOLES
 10
132.7106912005795039
 20
705.6883574800007182
 30
0.0
 40
1.5
  0
CIRCLE
  5
23A9
  8
HOLES
 10
132.7106912005795039
 20
685.6883574800007182
 30
0.0
 40
1.5
  0
CIRCLE
  5
23AA
  8
HOLES
 10
132.7106912005797028
 20
745.6883574800006045
 30
0.0
 40
1.5
  0
INSERT
  5
23AF
  8
CONSTRUCT
  2
*U15
 10
0.0
 20
0.0
 30
0.0
  0
POLYLINE
  5
23B0
  8
ENGRAVE
 66
     1
 10
0.0
 20
0.0
 30
0.0
 70
     1
  0
VERTEX
  5
288F
  8
ENGRAVE
 10
115.1922349184103069
 20
653.9383574800003771
 30
0.0
  0
VERTEX
  5
2890
  8
ENGRAVE
 10
115.1922349184104064
 20
777.4682578122263976
 30
0.0
 42
-0.4142135623730951
  0
VERTEX
  5
2891
  8
ENGRAVE
 10
119.6922349184104064
 20
781.9682578122263976
 30
0.0
  0
VERTEX
  5
2892
  8
ENGRAVE
 10
305.6922349184101222
 20
781.9682578122263976
 30
0.0
 42
-0.4142135623730951
  0
VERTEX
  5
2893
  8
ENGRAVE
 10
310.1922349184101222
 20
777.4682578122263976
 30
0.0
  0
VERTEX
  5
2894
  8
ENGRAVE
 10
310.1922349184101222
 20
653.9383574800002634
 30
0.0
 42
-0.4142135623730951
  0
VERTEX
  5
2895
  8
ENGRAVE
 10
305.6922349184101222
 20
649.4383574800003771
 30
0.0
  0
VERTEX
  5
2896
  8
ENGRAVE
 10
119.6922349184103069
 20
649.4383574800003771
 30
0.0
 42
-0.4142135623730951
  0
SEQEND
  5
2897
  8
ENGRAVE
  0
INSERT
  5
23B1
  8
CONSTRUCT
  2
*U16
 10
0.0
 20
0.0
 30
0.0
  0
INSERT
  5
23B2
  8
CONSTRUCT
  2
*U17
 10
0.0
 20
0.0
 30
0.0
  0
INSERT
  5
23B3
  8
CONSTRUCT
  2
*U18
 10
0.0
 20
0.0
 30
0.0
  0
CIRCLE
  5
23BB
  8
HOLES
 10
-69.624899119711003
 20
745.6883574800001497
 30
0.0
 40
0.75
  0
CIRCLE
  5
23BC
  8
HOLES
 10
-69.6248991197111309
 20
685.6883574800001497
 30
0.0
 40
0.75
  0
CIRCLE
  5
23BD
  8
HOLES
 10
-69.624899119711003
 20
705.6883574800002634
 30
0.0
 40
0.75
  0
CIRCLE
  5
23BE
  8
HOLES
 10
-69.624899119711003
 20
725.6883574800001497
 30
0.0
 40
0.75
  0
CIRCLE
  5
23BF
  8
HOLES
 10
-69.624899119711003
 20
735.6883574800001497
 30
0.0
 40
0.75
  0
CIRCLE
  5
23C0
  8
HOLES
 10
-69.624899119711003
 20
715.6883574800001497
 30
0.0
 40
0.75
  0
CIRCLE
  5
23C1
  8
HOLES
 10
-69.624899119711003
 20
695.6883574800001497
 30
0.0
 40
0.75
  0
CIRCLE
  5
23C2
  8
HOLES
 10
-69.6248991197111309
 20
675.6883574800001497
 30
0.0
 40
0.75
  0
CIRCLE
  5
23C3
  8
HOLES
 10
-69.624899119711003
 20
765.6883574800001497
 30
0.0
 40
0.75
  0
CIRCLE
  5
23C4
  8
HOLES
 10
-69.624899119711003
 20
755.6883574800002634
 30
0.0
 40
0.75
  0
CIRCLE
  5
23C5
  8
HOLES
 10
-69.624899119711003
 20
775.6883574800001497
 30
0.0
 40
0.75
  0
CIRCLE
  5
23C6
  8
HOLES
 10
-69.6248991197111309
 20
655.6883574800001497
 30
0.0
 40
0.75
  0
CIRCLE
  5
23C7
  8
HOLES
 10
-69.6248991197111309
 20
665.6883574800001497
 30
0.0
 40
0.75
  0
CIRCLE
  5
23C8
  8
HOLES
 10
-59.6248991197111309
 20
665.6883574800001497
 30
0.0
 40
0.75
  0
CIRCLE
  5
23C9
  8
HOLES
 10
-49.6248991197111309
 20
655.6883574800001497
 30
0.0
 40
0.75
  0
CIRCLE
  5
23CA
  8
HOLES
 10
-39.6248991197111309
 20
665.6883574800001497
 30
0.0
 40
0.75
  0
CIRCLE
  5
23CB
  8
HOLES
 10
-29.6248991197111309
 20
655.6883574800001497
 30
0.0
 40
0.75
  0
CIRCLE
  5
23CC
  8
HOLES
 10
-19.6248991197111309
 20
665.6883574800001497
 30
0.0
 40
0.75
  0
CIRCLE
  5
23CD
  8
HOLES
 10
-9.6248991197110154
 20
655.6883574800001497
 30
0.0
 40
0.75
  0
CIRCLE
  5
23CE
  8
HOLES
 10
0.3751008802889828
 20
665.6883574800001497
 30
0.0
 40
0.75
  0
CIRCLE
  5
23CF
  8
HOLES
 10
10.3751008802889793
 20
655.6883574800001497
 30
0.0
 40
0.75
  0
CIRCLE
  5
23D0
  8
HOLES
 10
10.3751008802889793
 20
665.6883574800001497
 30
0.0
 40
0.75
  0
CIRCLE
  5
23D1
  8
HOLES
 10
0.3751008802889828
 20
655.6883574800001497
 30
0.0
 40
0.75
  0
CIRCLE
  5
23D2
  8
HOLES
 10
-9.6248991197110154
 20
665.6883574800001497
 30
0.0
 40
0.75
  0
CIRCLE
  5
23D3
  8
HOLES
 10
-19.6248991197111309
 20
655.6883574800001497
 30
0.0
 40
0.75
  0
CIRCLE
  5
23D4
  8
HOLES
 10
-29.6248991197111309
 20
665.6883574800001497
 30
0.0
 40
0.75
  0
CIRCLE
  5
23D5
  8
HOLES
 10
-39.6248991197111309
 20
655.6883574800001497
 30
0.0
 40
0.75
  0
CIRCLE
  5
23D6
  8
HOLES
 10
-49.6248991197111309
 20
665.6883574800001497
 30
0.0
 40
0.75
  0
CIRCLE
  5
23D7
  8
HOLES
 10
-59.6248991197111309
 20
655.6883574800001497
 30
0.0
 40
0.75
  0
CIRCLE
  5
23D8
  8
HOLES
 10
-59.6248991197110101
 20
775.6883574800001497
 30
0.0
 40
0.75
  0
CIRCLE
  5
23D9
  8
HOLES
 10
-39.6248991197110314
 20
775.6883574800001497
 30
0.0
 40
0.75
  0
CIRCLE
  5
23DA
  8
HOLES
 10
-19.6248991197110207
 20
775.6883574800001497
 30
0.0
 40
0.75
  0
CIRCLE
  5
23DB
  8
HOLES
 10
0.3751008802889828
 20
775.6883574800001497
 30
0.0
 40
0.75
  0
CIRCLE
  5
23DC
  8
HOLES
 10
-59.6248991197110101
 20
755.6883574800002634
 30
0.0
 40
0.75
  0
CIRCLE
  5
23DD
  8
HOLES
 10
-49.6248991197110101
 20
765.6883574800001497
 30
0.0
 40
0.75
  0
CIRCLE
  5
23DE
  8
HOLES
 10
-39.6248991197110314
 20
755.6883574800002634
 30
0.0
 40
0.75
  0
CIRCLE
  5
23DF
  8
HOLES
 10
-29.6248991197110207
 20
765.6883574800001497
 30
0.0
 40
0.75
  0
CIRCLE
  5
23E0
  8
HOLES
 10
-19.6248991197110207
 20
755.6883574800002634
 30
0.0
 40
0.75
  0
CIRCLE
  5
23E1
  8
HOLES
 10
-9.6248991197110154
 20
765.6883574800001497
 30
0.0
 40
0.75
  0
CIRCLE
  5
23E2
  8
HOLES
 10
0.3751008802889828
 20
755.6883574800001497
 30
0.0
 40
0.75
  0
CIRCLE
  5
23E3
  8
HOLES
 10
10.3751008802889793
 20
765.6883574800001497
 30
0.0
 40
0.75
  0
CIRCLE
  5
23E4
  8
HOLES
 10
10.3751008802889793
 20
775.6883574800001497
 30
0.0
 40
0.75
  0
CIRCLE
  5
23E5
  8
HOLES
 10
10.3751008802889793
 20
755.6883574800001497
 30
0.0
 40
0.75
  0
CIRCLE
  5
23E6
  8
HOLES
 10
0.3751008802889828
 20
765.6883574800001497
 30
0.0
 40
0.75
  0
CIRCLE
  5
23E7
  8
HOLES
 10
-9.6248991197110154
 20
755.6883574800002634
 30
0.0
 40
0.75
  0
CIRCLE
  5
23E8
  8
HOLES
 10
-19.6248991197110207
 20
765.6883574800001497
 30
0.0
 40
0.75
  0
CIRCLE
  5
23E9
  8
HOLES
 10
-29.6248991197110207
 20
755.6883574800002634
 30
0.0
 40
0.75
  0
CIRCLE
  5
23EA
  8
HOLES
 10
-39.6248991197110314
 20
765.6883574800001497
 30
0.0
 40
0.75
  0
CIRCLE
  5
23EB
  8
HOLES
 10
-49.6248991197110101
 20
755.6883574800002634
 30
0.0
 40
0.75
  0
CIRCLE
  5
23EC
  8
HOLES
 10
-59.6248991197110101
 20
765.6883574800001497
 30
0.0
 40
0.75
  0
CIRCLE
  5
23ED
  8
HOLES
 10
-9.6248991197110154
 20
775.6883574800001497
 30
0.0
 40
0.75
  0
CIRCLE
  5
23EE
  8
HOLES
 10
-29.6248991197110207
 20
775.6883574800001497
 30
0.0
 40
0.75
  0
CIRCLE
  5
23EF
  8
HOLES
 10
-49.6248991197110101
 20
775.6883574800001497
 30
0.0
 40
0.75
  0
INSERT
  5
23F0
  8
CONSTRUCT
  2
*U19
 10
0.0
 20
0.0
 30
0.0
  0
INSERT
  5
23F1
  8
CONSTRUCT
  2
*U20
 10
0.0
 20
0.0
 30
0.0
  0
CIRCLE
  5
23F2
  8
HOLES
 10
-49.6248991197110101
 20
745.6883574800001497
 30
0.0
 40
0.75
  0
CIRCLE
  5
23F3
  8
HOLES
 10
-29.6248991197110207
 20
745.6883574800001497
 30
0.0
 40
0.75
  0
CIRCLE
  5
23F4
  8
HOLES
 10
-9.6248991197110154
 20
745.6883574800001497
 30
0.0
 40
0.75
  0
CIRCLE
  5
23F5
  8
HOLES
 10
-59.6248991197111309
 20
675.6883574800001497
 30
0.0
 40
0.75
  0
CIRCLE
  5
23F6
  8
HOLES
 10
-59.6248991197111309
 20
695.6883574800001497
 30
0.0
 40
0.75
  0
CIRCLE
  5
23F7
  8
HOLES
 10
-59.6248991197110101
 20
715.6883574800001497
 30
0.0
 40
0.75
  0
CIRCLE
  5
23F8
  8
HOLES
 10
-59.6248991197110101
 20
735.6883574800001497
 30
0.0
 40
0.75
  0
CIRCLE
  5
23F9
  8
HOLES
 10
-49.6248991197111309
 20
685.6883574800001497
 30
0.0
 40
0.75
  0
CIRCLE
  5
23FA
  8
HOLES
 10
-49.6248991197111309
 20
705.6883574800002634
 30
0.0
 40
0.75
  0
CIRCLE
  5
23FB
  8
HOLES
 10
-49.6248991197110101
 20
725.6883574800001497
 30
0.0
 40
0.75
  0
CIRCLE
  5
23FC
  8
HOLES
 10
-39.6248991197111309
 20
675.6883574800001497
 30
0.0
 40
0.75
  0
CIRCLE
  5
23FD
  8
HOLES
 10
-39.6248991197111309
 20
695.6883574800001497
 30
0.0
 40
0.75
  0
CIRCLE
  5
23FE
  8
HOLES
 10
-39.6248991197110314
 20
715.6883574800001497
 30
0.0
 40
0.75
  0
CIRCLE
  5
23FF
  8
HOLES
 10
-39.6248991197110314
 20
735.6883574800001497
 30
0.0
 40
0.75
  0
CIRCLE
  5
2400
  8
HOLES
 10
-29.6248991197111309
 20
685.6883574800001497
 30
0.0
 40
0.75
  0
CIRCLE
  5
2401
  8
HOLES
 10
-29.6248991197111309
 20
705.6883574800002634
 30
0.0
 40
0.75
  0
CIRCLE
  5
2402
  8
HOLES
 10
-29.6248991197110207
 20
725.6883574800001497
 30
0.0
 40
0.75
  0
CIRCLE
  5
2403
  8
HOLES
 10
-19.6248991197111309
 20
675.6883574800001497
 30
0.0
 40
0.75
  0
CIRCLE
  5
2404
  8
HOLES
 10
-19.6248991197111309
 20
695.6883574800001497
 30
0.0
 40
0.75
  0
CIRCLE
  5
2405
  8
HOLES
 10
-19.6248991197111309
 20
715.6883574800001497
 30
0.0
 40
0.75
  0
CIRCLE
  5
2406
  8
HOLES
 10
-19.6248991197110207
 20
735.6883574800001497
 30
0.0
 40
0.75
  0
CIRCLE
  5
2407
  8
HOLES
 10
-9.6248991197110154
 20
685.6883574800001497
 30
0.0
 40
0.75
  0
CIRCLE
  5
2408
  8
HOLES
 10
-9.6248991197110154
 20
705.6883574800002634
 30
0.0
 40
0.75
  0
CIRCLE
  5
2409
  8
HOLES
 10
-9.6248991197110154
 20
725.6883574800001497
 30
0.0
 40
0.75
  0
CIRCLE
  5
240A
  8
HOLES
 10
0.3751008802889828
 20
675.6883574800001497
 30
0.0
 40
0.75
  0
CIRCLE
  5
240B
  8
HOLES
 10
0.3751008802889828
 20
695.6883574800001497
 30
0.0
 40
0.75
  0
CIRCLE
  5
240C
  8
HOLES
 10
0.3751008802889828
 20
715.6883574800001497
 30
0.0
 40
0.75
  0
CIRCLE
  5
240D
  8
HOLES
 10
0.3751008802889828
 20
735.6883574800001497
 30
0.0
 40
0.75
  0
CIRCLE
  5
240E
  8
HOLES
 10
10.3751008802889793
 20
685.6883574800001497
 30
0.0
 40
0.75
  0
CIRCLE
  5
240F
  8
HOLES
 10
10.3751008802889793
 20
705.6883574800001497
 30
0.0
 40
0.75
  0
CIRCLE
  5
2410
  8
HOLES
 10
10.3751008802889793
 20
725.6883574800001497
 30
0.0
 40
0.75
  0
CIRCLE
  5
2411
  8
HOLES
 10
10.3751008802889793
 20
745.6883574800001497
 30
0.0
 40
0.75
  0
CIRCLE
  5
2412
  8
HOLES
 10
10.3751008802889793
 20
735.6883574800001497
 30
0.0
 40
0.75
  0
CIRCLE
  5
2413
  8
HOLES
 10
10.3751008802889793
 20
715.6883574800001497
 30
0.0
 40
0.75
  0
CIRCLE
  5
2414
  8
HOLES
 10
10.3751008802889793
 20
695.6883574800001497
 30
0.0
 40
0.75
  0
CIRCLE
  5
2415
  8
HOLES
 10
10.3751008802889793
 20
675.6883574800001497
 30
0.0
 40
0.75
  0
CIRCLE
  5
2416
  8
HOLES
 10
0.3751008802889828
 20
725.6883574800001497
 30
0.0
 40
0.75
  0
CIRCLE
  5
2417
  8
HOLES
 10
0.3751008802889828
 20
705.6883574800001497
 30
0.0
 40
0.75
  0
CIRCLE
  5
2418
  8
HOLES
 10
0.3751008802889828
 20
685.6883574800001497
 30
0.0
 40
0.75
  0
CIRCLE
  5
2419
  8
HOLES
 10
-9.6248991197110154
 20
735.6883574800001497
 30
0.0
 40
0.75
  0
CIRCLE
  5
241A
  8
HOLES
 10
-9.6248991197110154
 20
715.6883574800001497
 30
0.0
 40
0.75
  0
CIRCLE
  5
241B
  8
HOLES
 10
-9.6248991197110154
 20
695.6883574800001497
 30
0.0
 40
0.75
  0
CIRCLE
  5
241C
  8
HOLES
 10
-9.6248991197110154
 20
675.6883574800001497
 30
0.0
 40
0.75
  0
CIRCLE
  5
241D
  8
HOLES
 10
-19.6248991197111309
 20
725.6883574800001497
 30
0.0
 40
0.75
  0
CIRCLE
  5
241E
  8
HOLES
 10
-19.6248991197111309
 20
705.6883574800002634
 30
0.0
 40
0.75
  0
CIRCLE
  5
241F
  8
HOLES
 10
-19.6248991197111309
 20
685.6883574800001497
 30
0.0
 40
0.75
  0
CIRCLE
  5
2420
  8
HOLES
 10
-29.6248991197110207
 20
735.6883574800001497
 30
0.0
 40
0.75
  0
CIRCLE
  5
2421
  8
HOLES
 10
-29.6248991197111309
 20
695.6883574800001497
 30
0.0
 40
0.75
  0
CIRCLE
  5
2422
  8
HOLES
 10
-29.6248991197111309
 20
675.6883574800001497
 30
0.0
 40
0.75
  0
CIRCLE
  5
2423
  8
HOLES
 10
-39.6248991197110314
 20
725.6883574800001497
 30
0.0
 40
0.75
  0
CIRCLE
  5
2424
  8
HOLES
 10
-39.6248991197111309
 20
705.6883574800002634
 30
0.0
 40
0.75
  0
CIRCLE
  5
2425
  8
HOLES
 10
-39.6248991197111309
 20
685.6883574800001497
 30
0.0
 40
0.75
  0
CIRCLE
  5
2426
  8
HOLES
 10
-49.6248991197110101
 20
735.6883574800001497
 30
0.0
 40
0.75
  0
CIRCLE
  5
2427
  8
HOLES
 10
-49.6248991197110101
 20
715.6883574800001497
 30
0.0
 40
0.75
  0
CIRCLE
  5
2428
  8
HOLES
 10
-49.6248991197111309
 20
695.6883574800001497
 30
0.0
 40
0.75
  0
CIRCLE
  5
2429
  8
HOLES
 10
-49.6248991197111309
 20
675.6883574800001497
 30
0.0
 40
0.75
  0
CIRCLE
  5
242A
  8
HOLES
 10
-59.6248991197110101
 20
725.6883574800001497
 30
0.0
 40
0.75
  0
CIRCLE
  5
242B
  8
HOLES
 10
-59.6248991197110101
 20
705.6883574800002634
 30
0.0
 40
0.75
  0
CIRCLE
  5
242C
  8
HOLES
 10
-59.6248991197111309
 20
685.6883574800001497
 30
0.0
 40
0.75
  0
CIRCLE
  5
242D
  8
HOLES
 10
0.3751008802889828
 20
745.6883574800001497
 30
0.0
 40
0.75
  0
CIRCLE
  5
242E
  8
HOLES
 10
-19.6248991197110207
 20
745.6883574800001497
 30
0.0
 40
0.75
  0
CIRCLE
  5
242F
  8
HOLES
 10
-39.6248991197110314
 20
745.6883574800001497
 30
0.0
 40
0.75
  0
CIRCLE
  5
2430
  8
HOLES
 10
-59.6248991197110101
 20
745.6883574800001497
 30
0.0
 40
0.75
  0
POLYLINE
  5
2431
  8
CUT_LINES
 66
     1
 10
0.0
 20
0.0
 30
0.0
 70
     1
  0
VERTEX
  5
28AE
  8
CUT_LINES
 10
-127.1433554018804983
 20
653.9383574799998087
 30
0.0
  0
VERTEX
  5
28AF
  8
CUT_LINES
 10
-127.1433554018803989
 20
777.4682578122259429
 30
0.0
 42
-0.4142135623730951
  0
VERTEX
  5
28B0
  8
CUT_LINES
 10
-122.6433554018803989
 20
781.9682578122259429
 30
0.0
  0
VERTEX
  5
28B1
  8
CUT_LINES
 10
63.3566445981193169
 20
781.9682578122259429
 30
0.0
 42
-0.4142135623730951
  0
VERTEX
  5
28B2
  8
CUT_LINES
 10
67.8566445981194306
 20
777.4682578122259429
 30
0.0
  0
VERTEX
  5
28B3
  8
CUT_LINES
 10
67.8566445981194875
 20
653.9383574800001497
 30
0.0
 42
-0.4142135623730951
  0
VERTEX
  5
28B4
  8
CUT_LINES
 10
63.3566445981192601
 20
649.4383574800001497
 30
0.0
  0
VERTEX
  5
28B5
  8
CUT_LINES
 10
-122.6433554018804983
 20
649.4383574800001497
 30
0.0
 42
-0.4142135623730951
  0
SEQEND
  5
28B6
  8
CUT_LINES
  0
CIRCLE
  5
2432
  8
HOLES
 10
20.3751008802889793
 20
665.6883574800001497
 30
0.0
 40
0.75
  0
CIRCLE
  5
2433
  8
HOLES
 10
30.3751008802889793
 20
655.6883574800001497
 30
0.0
 40
0.75
  0
CIRCLE
  5
2434
  8
HOLES
 10
40.3751008802889828
 20
665.6883574800001497
 30
0.0
 40
0.75
  0
CIRCLE
  5
2435
  8
HOLES
 10
50.3751008802889828
 20
655.6883574800001497
 30
0.0
 40
0.75
  0
CIRCLE
  5
2436
  8
HOLES
 10
50.3751008802889828
 20
665.6883574800001497
 30
0.0
 40
0.75
  0
CIRCLE
  5
2437
  8
HOLES
 10
40.3751008802889828
 20
655.6883574800001497
 30
0.0
 40
0.75
  0
CIRCLE
  5
2438
  8
HOLES
 10
30.3751008802889793
 20
665.6883574800001497
 30
0.0
 40
0.75
  0
CIRCLE
  5
2439
  8
HOLES
 10
20.3751008802889793
 20
655.6883574800001497
 30
0.0
 40
0.75
  0
CIRCLE
  5
243A
  8
HOLES
 10
20.3751008802889793
 20
775.6883574800001497
 30
0.0
 40
0.75
  0
CIRCLE
  5
243B
  8
HOLES
 10
40.3751008802889828
 20
775.6883574800001497
 30
0.0
 40
0.75
  0
CIRCLE
  5
243C
  8
HOLES
 10
20.3751008802889793
 20
755.6883574800001497
 30
0.0
 40
0.75
  0
CIRCLE
  5
243D
  8
HOLES
 10
30.3751008802889793
 20
765.6883574800001497
 30
0.0
 40
0.75
  0
CIRCLE
  5
243E
  8
HOLES
 10
40.3751008802889828
 20
755.6883574800001497
 30
0.0
 40
0.75
  0
CIRCLE
  5
243F
  8
HOLES
 10
50.3751008802889828
 20
765.6883574800001497
 30
0.0
 40
0.75
  0
CIRCLE
  5
2440
  8
HOLES
 10
50.3751008802889828
 20
775.6883574800001497
 30
0.0
 40
0.75
  0
CIRCLE
  5
2441
  8
HOLES
 10
50.3751008802889828
 20
755.6883574800001497
 30
0.0
 40
0.75
  0
CIRCLE
  5
2442
  8
HOLES
 10
40.3751008802889828
 20
765.6883574800001497
 30
0.0
 40
0.75
  0
CIRCLE
  5
2443
  8
HOLES
 10
30.3751008802889793
 20
755.6883574800001497
 30
0.0
 40
0.75
  0
CIRCLE
  5
2444
  8
HOLES
 10
20.3751008802889793
 20
765.6883574800001497
 30
0.0
 40
0.75
  0
CIRCLE
  5
2445
  8
HOLES
 10
30.3751008802889793
 20
775.6883574800001497
 30
0.0
 40
0.75
  0
CIRCLE
  5
2446
  8
HOLES
 10
30.3751008802889793
 20
745.6883574800001497
 30
0.0
 40
0.75
  0
CIRCLE
  5
2447
  8
HOLES
 10
20.3751008802889793
 20
675.6883574800001497
 30
0.0
 40
0.75
  0
CIRCLE
  5
2448
  8
HOLES
 10
20.3751008802889793
 20
695.6883574800001497
 30
0.0
 40
0.75
  0
CIRCLE
  5
2449
  8
HOLES
 10
20.3751008802889793
 20
715.6883574800001497
 30
0.0
 40
0.75
  0
CIRCLE
  5
244A
  8
HOLES
 10
20.3751008802889793
 20
735.6883574800001497
 30
0.0
 40
0.75
  0
CIRCLE
  5
244B
  8
HOLES
 10
30.3751008802889793
 20
685.6883574800001497
 30
0.0
 40
0.75
  0
CIRCLE
  5
244C
  8
HOLES
 10
30.3751008802889793
 20
705.6883574800001497
 30
0.0
 40
0.75
  0
CIRCLE
  5
244D
  8
HOLES
 10
30.3751008802889793
 20
725.6883574800001497
 30
0.0
 40
0.75
  0
CIRCLE
  5
244E
  8
HOLES
 10
40.3751008802889828
 20
675.6883574800001497
 30
0.0
 40
0.75
  0
CIRCLE
  5
244F
  8
HOLES
 10
40.3751008802889828
 20
695.6883574800001497
 30
0.0
 40
0.75
  0
CIRCLE
  5
2450
  8
HOLES
 10
40.3751008802889828
 20
715.6883574800001497
 30
0.0
 40
0.75
  0
CIRCLE
  5
2451
  8
HOLES
 10
40.3751008802889828
 20
735.6883574800001497
 30
0.0
 40
0.75
  0
CIRCLE
  5
2452
  8
HOLES
 10
50.3751008802889828
 20
685.6883574800001497
 30
0.0
 40
0.75
  0
CIRCLE
  5
2453
  8
HOLES
 10
50.3751008802889828
 20
705.6883574800001497
 30
0.0
 40
0.75
  0
CIRCLE
  5
2454
  8
HOLES
 10
50.3751008802889828
 20
725.6883574800001497
 30
0.0
 40
0.75
  0
CIRCLE
  5
2455
  8
HOLES
 10
50.3751008802889828
 20
745.6883574800001497
 30
0.0
 40
0.75
  0
CIRCLE
  5
2456
  8
HOLES
 10
50.3751008802889828
 20
735.6883574800001497
 30
0.0
 40
0.75
  0
CIRCLE
  5
2457
  8
HOLES
 10
50.3751008802889828
 20
695.6883574800001497
 30
0.0
 40
0.75
  0
CIRCLE
  5
2458
  8
HOLES
 10
50.3751008802889828
 20
675.6883574800001497
 30
0.0
 40
0.75
  0
CIRCLE
  5
2459
  8
HOLES
 10
40.3751008802889828
 20
725.6883574800001497
 30
0.0
 40
0.75
  0
CIRCLE
  5
245A
  8
HOLES
 10
40.3751008802889828
 20
705.6883574800001497
 30
0.0
 40
0.75
  0
CIRCLE
  5
245B
  8
HOLES
 10
40.3751008802889828
 20
685.6883574800001497
 30
0.0
 40
0.75
  0
CIRCLE
  5
245C
  8
HOLES
 10
30.3751008802889793
 20
735.6883574800001497
 30
0.0
 40
0.75
  0
CIRCLE
  5
245D
  8
HOLES
 10
30.3751008802889793
 20
715.6883574800001497
 30
0.0
 40
0.75
  0
CIRCLE
  5
245E
  8
HOLES
 10
30.3751008802889793
 20
695.6883574800001497
 30
0.0
 40
0.75
  0
CIRCLE
  5
245F
  8
HOLES
 10
30.3751008802889793
 20
675.6883574800001497
 30
0.0
 40
0.75
  0
CIRCLE
  5
2460
  8
HOLES
 10
20.3751008802889793
 20
725.6883574800001497
 30
0.0
 40
0.75
  0
CIRCLE
  5
2461
  8
HOLES
 10
20.3751008802889793
 20
705.6883574800001497
 30
0.0
 40
0.75
  0
CIRCLE
  5
2462
  8
HOLES
 10
20.3751008802889793
 20
685.6883574800001497
 30
0.0
 40
0.75
  0
CIRCLE
  5
2463
  8
HOLES
 10
40.3751008802889828
 20
745.6883574800001497
 30
0.0
 40
0.75
  0
CIRCLE
  5
2464
  8
HOLES
 10
20.3751008802889793
 20
745.6883574800001497
 30
0.0
 40
0.75
  0
CIRCLE
  5
2465
  8
HOLES
 10
-109.624899119711003
 20
745.6883574800001497
 30
0.0
 40
0.75
  0
CIRCLE
  5
2466
  8
HOLES
 10
-109.6248991197111025
 20
685.6883574800001497
 30
0.0
 40
0.75
  0
CIRCLE
  5
2467
  8
HOLES
 10
-109.624899119711003
 20
705.6883574800002634
 30
0.0
 40
0.75
  0
CIRCLE
  5
2468
  8
HOLES
 10
-109.624899119711003
 20
725.6883574800001497
 30
0.0
 40
0.75
  0
CIRCLE
  5
2469
  8
HOLES
 10
-109.624899119711003
 20
735.6883574800001497
 30
0.0
 40
0.75
  0
CIRCLE
  5
246A
  8
HOLES
 10
-109.6248991197111025
 20
695.6883574800001497
 30
0.0
 40
0.75
  0
CIRCLE
  5
246B
  8
HOLES
 10
-109.6248991197111025
 20
675.6883574800001497
 30
0.0
 40
0.75
  0
CIRCLE
  5
246C
  8
HOLES
 10
-109.624899119711003
 20
765.6883574800001497
 30
0.0
 40
0.75
  0
CIRCLE
  5
246D
  8
HOLES
 10
-109.624899119711003
 20
755.6883574800002634
 30
0.0
 40
0.75
  0
CIRCLE
  5
246E
  8
HOLES
 10
-109.624899119711003
 20
775.6883574800001497
 30
0.0
 40
0.75
  0
CIRCLE
  5
246F
  8
HOLES
 10
-109.6248991197111025
 20
655.6883574800001497
 30
0.0
 40
0.75
  0
CIRCLE
  5
2470
  8
HOLES
 10
-109.6248991197111025
 20
665.6883574800001497
 30
0.0
 40
0.75
  0
CIRCLE
  5
2471
  8
HOLES
 10
-99.6248991197111309
 20
665.6883574800001497
 30
0.0
 40
0.75
  0
CIRCLE
  5
2472
  8
HOLES
 10
-89.6248991197111309
 20
655.6883574800001497
 30
0.0
 40
0.75
  0
CIRCLE
  5
2473
  8
HOLES
 10
-79.6248991197111167
 20
665.6883574800001497
 30
0.0
 40
0.75
  0
CIRCLE
  5
2474
  8
HOLES
 10
-79.6248991197111167
 20
655.6883574800001497
 30
0.0
 40
0.75
  0
CIRCLE
  5
2475
  8
HOLES
 10
-89.6248991197111309
 20
665.6883574800001497
 30
0.0
 40
0.75
  0
CIRCLE
  5
2476
  8
HOLES
 10
-99.6248991197111309
 20
655.6883574800001497
 30
0.0
 40
0.75
  0
CIRCLE
  5
2477
  8
HOLES
 10
-99.6248991197110172
 20
775.6883574800001497
 30
0.0
 40
0.75
  0
CIRCLE
  5
2478
  8
HOLES
 10
-79.624899119711003
 20
775.6883574800001497
 30
0.0
 40
0.75
  0
CIRCLE
  5
2479
  8
HOLES
 10
-99.6248991197110172
 20
755.6883574800002634
 30
0.0
 40
0.75
  0
CIRCLE
  5
247A
  8
HOLES
 10
-89.6248991197110172
 20
765.6883574800001497
 30
0.0
 40
0.75
  0
CIRCLE
  5
247B
  8
HOLES
 10
-79.624899119711003
 20
755.6883574800002634
 30
0.0
 40
0.75
  0
CIRCLE
  5
247C
  8
HOLES
 10
-79.624899119711003
 20
765.6883574800001497
 30
0.0
 40
0.75
  0
CIRCLE
  5
247D
  8
HOLES
 10
-89.6248991197110172
 20
755.6883574800002634
 30
0.0
 40
0.75
  0
CIRCLE
  5
247E
  8
HOLES
 10
-99.6248991197110172
 20
765.6883574800001497
 30
0.0
 40
0.75
  0
CIRCLE
  5
247F
  8
HOLES
 10
-89.6248991197110172
 20
775.6883574800001497
 30
0.0
 40
0.75
  0
CIRCLE
  5
2480
  8
HOLES
 10
-89.6248991197110172
 20
745.6883574800001497
 30
0.0
 40
0.75
  0
CIRCLE
  5
2481
  8
HOLES
 10
-99.6248991197111309
 20
675.6883574800001497
 30
0.0
 40
0.75
  0
CIRCLE
  5
2482
  8
HOLES
 10
-99.6248991197110172
 20
695.6883574800001497
 30
0.0
 40
0.75
  0
CIRCLE
  5
2483
  8
HOLES
 10
-99.6248991197110172
 20
715.6883574800001497
 30
0.0
 40
0.75
  0
CIRCLE
  5
2484
  8
HOLES
 10
-99.6248991197110172
 20
735.6883574800001497
 30
0.0
 40
0.75
  0
CIRCLE
  5
2485
  8
HOLES
 10
-89.6248991197111309
 20
685.6883574800001497
 30
0.0
 40
0.75
  0
CIRCLE
  5
2486
  8
HOLES
 10
-89.6248991197110172
 20
705.6883574800002634
 30
0.0
 40
0.75
  0
CIRCLE
  5
2487
  8
HOLES
 10
-89.6248991197110172
 20
725.6883574800001497
 30
0.0
 40
0.75
  0
CIRCLE
  5
2488
  8
HOLES
 10
-79.6248991197111167
 20
675.6883574800001497
 30
0.0
 40
0.75
  0
CIRCLE
  5
2489
  8
HOLES
 10
-79.624899119711003
 20
695.6883574800001497
 30
0.0
 40
0.75
  0
CIRCLE
  5
248A
  8
HOLES
 10
-79.624899119711003
 20
715.6883574800001497
 30
0.0
 40
0.75
  0
CIRCLE
  5
248B
  8
HOLES
 10
-79.624899119711003
 20
735.6883574800001497
 30
0.0
 40
0.75
  0
CIRCLE
  5
248C
  8
HOLES
 10
-79.624899119711003
 20
725.6883574800001497
 30
0.0
 40
0.75
  0
CIRCLE
  5
248D
  8
HOLES
 10
-79.624899119711003
 20
705.6883574800002634
 30
0.0
 40
0.75
  0
CIRCLE
  5
248E
  8
HOLES
 10
-79.6248991197111167
 20
685.6883574800001497
 30
0.0
 40
0.75
  0
CIRCLE
  5
248F
  8
HOLES
 10
-89.6248991197110172
 20
735.6883574800001497
 30
0.0
 40
0.75
  0
CIRCLE
  5
2490
  8
HOLES
 10
-89.6248991197110172
 20
715.6883574800001497
 30
0.0
 40
0.75
  0
CIRCLE
  5
2491
  8
HOLES
 10
-89.6248991197110172
 20
695.6883574800001497
 30
0.0
 40
0.75
  0
CIRCLE
  5
2492
  8
HOLES
 10
-89.6248991197111309
 20
675.6883574800001497
 30
0.0
 40
0.75
  0
CIRCLE
  5
2493
  8
HOLES
 10
-99.6248991197110172
 20
725.6883574800001497
 30
0.0
 40
0.75
  0
CIRCLE
  5
2494
  8
HOLES
 10
-99.6248991197110172
 20
705.6883574800002634
 30
0.0
 40
0.75
  0
CIRCLE
  5
2495
  8
HOLES
 10
-99.6248991197111309
 20
685.6883574800001497
 30
0.0
 40
0.75
  0
CIRCLE
  5
2496
  8
HOLES
 10
-79.624899119711003
 20
745.6883574800001497
 30
0.0
 40
0.75
  0
CIRCLE
  5
2497
  8
HOLES
 10
-99.6248991197110172
 20
745.6883574800001497
 30
0.0
 40
0.75
  0
CIRCLE
  5
2498
  8
HOLES
 10
-69.624899119711003
 20
775.6883574800001497
 30
0.0
 40
0.75
  0
CIRCLE
  5
2499
  8
HOLES
 10
-49.6248991197110101
 20
775.6883574800001497
 30
0.0
 40
0.75
  0
CIRCLE
  5
249A
  8
HOLES
 10
-29.6248991197110207
 20
775.6883574800001497
 30
0.0
 40
0.75
  0
CIRCLE
  5
249B
  8
HOLES
 10
-9.6248991197110154
 20
775.6883574800001497
 30
0.0
 40
0.75
  0
CIRCLE
  5
249C
  8
HOLES
 10
10.3751008802889793
 20
775.6883574800001497
 30
0.0
 40
0.75
  0
CIRCLE
  5
249D
  8
HOLES
 10
0.3751008802889828
 20
775.6883574800001497
 30
0.0
 40
0.75
  0
CIRCLE
  5
249E
  8
HOLES
 10
-19.6248991197110207
 20
775.6883574800001497
 30
0.0
 40
0.75
  0
CIRCLE
  5
249F
  8
HOLES
 10
-39.6248991197110314
 20
775.6883574800001497
 30
0.0
 40
0.75
  0
CIRCLE
  5
24A0
  8
HOLES
 10
-59.6248991197110101
 20
775.6883574800001497
 30
0.0
 40
0.75
  0
CIRCLE
  5
24A1
  8
HOLES
 10
30.3751008802889793
 20
775.6883574800001497
 30
0.0
 40
0.75
  0
CIRCLE
  5
24A2
  8
HOLES
 10
50.3751008802889828
 20
775.6883574800001497
 30
0.0
 40
0.75
  0
CIRCLE
  5
24A3
  8
HOLES
 10
40.3751008802889828
 20
775.6883574800001497
 30
0.0
 40
0.75
  0
CIRCLE
  5
24A4
  8
HOLES
 10
20.3751008802889793
 20
775.6883574800001497
 30
0.0
 40
0.75
  0
CIRCLE
  5
24A5
  8
HOLES
 10
-109.624899119711003
 20
775.6883574800001497
 30
0.0
 40
0.75
  0
CIRCLE
  5
24A6
  8
HOLES
 10
-89.6248991197110172
 20
775.6883574800001497
 30
0.0
 40
0.75
  0
CIRCLE
  5
24A7
  8
HOLES
 10
-79.624899119711003
 20
775.6883574800001497
 30
0.0
 40
0.75
  0
CIRCLE
  5
24A8
  8
HOLES
 10
-99.6248991197110172
 20
775.6883574800001497
 30
0.0
 40
0.75
  0
INSERT
  5
24AD
  8
CONSTRUCT
  2
*U21
 10
0.0
 20
0.0
 30
0.0
  0
INSERT
  5
24AE
  8
CONSTRUCT
  2
*U22
 10
0.0
 20
0.0
 30
0.0
  0
POLYLINE
  5
24B2
  8
CUT_LINES
 66
     1
 10
0.0
 20
0.0
 30
0.0
  0
VERTEX
  5
28C0
  8
CUT_LINES
 10
-349.4763584027629122
 20
1144.3447126353710246
 30
0.0
  0
VERTEX
  5
28C1
  8
CUT_LINES
 10
-349.4784852445162073
 20
1119.5855337021750984
 30
0.0
 42
-0.179777427967542
  0
VERTEX
  5
28C2
  8
CUT_LINES
 10
-350.2160899447268889
 20
1117.609584429294955
 30
0.0
 42
2.4997070363619902
  0
VERTEX
  5
28C3
  8
CUT_LINES
 10
-344.6020067065567218
 20
1117.4730816998010141
 30
0.0
 42
-0.1989123054166977
  0
VERTEX
  5
28C4
  8
CUT_LINES
 10
-345.4806758264812743
 20
1119.5944065269070506
 30
0.0
  0
VERTEX
  5
28C5
  8
CUT_LINES
 10
-345.476600770081177
 20
1132.3446101777249169
 30
0.0
 42
-0.4173269645227075
  0
VERTEX
  5
28C6
  8
CUT_LINES
 10
-342.4775391822548727
 20
1135.374565010869901
 30
0.0
  0
VERTEX
  5
28C7
  8
CUT_LINES
 10
-279.4765936819409262
 20
1135.374564899123925
 30
0.0
 42
-0.4161934456946243
  0
VERTEX
  5
28C8
  8
CUT_LINES
 10
-275.4766207410810921
 20
1131.344121913590925
 30
0.0
  0
VERTEX
  5
28C9
  8
CUT_LINES
 10
-275.4769336593054732
 20
1099.5941219143689977
 30
0.0
 42
-0.4142135623730951
  0
VERTEX
  5
28CA
  8
CUT_LINES
 10
-278.4769485601365204
 20
1096.594136815273032
 30
0.0
  0
VERTEX
  5
28CB
  8
CUT_LINES
 10
-322.4655826627106876
 20
1096.6063435640860462
 30
0.0
 42
-0.1697643100033611
  0
VERTEX
  5
28CC
  8
CUT_LINES
 10
-324.4667611335318043
 20
1097.34978436464894
 30
0.0
 42
2.494885165565603
  0
VERTEX
  5
28CD
  8
CUT_LINES
 10
-324.5959624968169237
 20
1091.7276744890889404
 30
0.0
 42
-0.1989122831575435
  0
VERTEX
  5
28CE
  8
CUT_LINES
 10
-322.4746378899719161
 20
1092.6063436090139476
 30
0.0
  0
VERTEX
  5
28CF
  8
CUT_LINES
 10
-283.4774756120751817
 20
1092.5941864848819023
 30
0.0
 42
-0.4142135623730951
  0
VERTEX
  5
28D0
  8
CUT_LINES
 10
-280.4774905129800118
 20
1089.5941715840510824
 30
0.0
  0
VERTEX
  5
28D1
  8
CUT_LINES
 10
-280.477689191218019
 20
1049.5941715845440285
 30
0.0
 42
-0.4142135623730951
  0
VERTEX
  5
28D2
  8
CUT_LINES
 10
-283.4777040920486115
 20
1046.5941864854489722
 30
0.0
  0
VERTEX
  5
28D3
  8
CUT_LINES
 10
-322.4658192506271916
 20
1046.608522683729916
 30
0.0
 42
-0.1697652444872435
  0
VERTEX
  5
28D4
  8
CUT_LINES
 10
-324.4670094705115275
 20
1047.3519637119770778
 30
0.0
 42
2.494885165561417
  0
VERTEX
  5
28D5
  8
CUT_LINES
 10
-324.5962108337895984
 20
1041.729853836410939
 30
0.0
 42
-0.1991324534169365
  0
VERTEX
  5
28D6
  8
CUT_LINES
 10
-322.4754239709844796
 20
1042.6063436123010888
 30
0.0
  0
VERTEX
  5
28D7
  8
CUT_LINES
 10
-278.477390173576282
 20
1042.5906725927029584
 30
0.0
 42
-0.4147178860911182
  0
VERTEX
  5
28D8
  8
CUT_LINES
 10
-275.4775391822545885
 20
1039.5946646786439942
 30
0.0
  0
VERTEX
  5
28D9
  8
CUT_LINES
 10
-275.4775445948868082
 20
1007.8441219158860349
 30
0.0
 42
-0.4142135623730951
  0
VERTEX
  5
28DA
  8
CUT_LINES
 10
-279.4775644626611779
 20
1003.8441417837590279
 30
0.0
  0
VERTEX
  5
28DB
  8
CUT_LINES
 10
-342.480350961730494
 20
1003.8446279720840266
 30
0.0
 42
-0.4142135623730951
  0
VERTEX
  5
28DC
  8
CUT_LINES
 10
-345.4803360608257208
 20
1006.8446428729159834
 30
0.0
  0
VERTEX
  5
28DD
  8
CUT_LINES
 10
-345.4795943558332851
 20
1019.5944764692619628
 30
0.0
 42
-0.1989123054166951
  0
VERTEX
  5
28DE
  8
CUT_LINES
 10
-344.6009040764932934
 20
1021.7157223850090304
 30
0.0
 42
2.4948851655815241
  0
VERTEX
  5
28DF
  8
CUT_LINES
 10
-350.2230153195242224
 20
1021.5865767869499905
 30
0.0
 42
-0.1697669118055889
  0
VERTEX
  5
28E0
  8
CUT_LINES
 10
-349.4795937650756059
 20
1019.5853582190450197
 30
0.0
  0
VERTEX
  5
28E1
  8
CUT_LINES
 10
-349.4803360586644772
 20
1006.8445925930219573
 30
0.0
 42
-0.4142135623730951
  0
VERTEX
  5
28E2
  8
CUT_LINES
 10
-352.4803509616072006
 20
1003.8446776416440116
 30
0.0
  0
VERTEX
  5
28E3
  8
CUT_LINES
 10
-392.4732883175551024
 20
1003.8448762848020124
 30
0.0
 42
-0.4142135623730951
  0
VERTEX
  5
28E4
  8
CUT_LINES
 10
-395.4732734166502723
 20
1006.844891185632946
 30
0.0
  0
VERTEX
  5
28E5
  8
CUT_LINES
 10
-395.4774150184915129
 20
1019.5948152217639517
 30
0.0
 42
-0.1989123054166925
  0
VERTEX
  5
28E6
  8
CUT_LINES
 10
-394.5987247291703852
 20
1021.7159707219819893
 30
0.0
 42
2.4948851655660609
  0
VERTEX
  5
28E7
  8
CUT_LINES
 10
-400.2208359722274054
 20
1021.5868251239460278
 30
0.0
 42
-0.1697702653552036
  0
VERTEX
  5
28E8
  8
CUT_LINES
 10
-399.4774136017367141
 20
1019.5855643926239509
 30
0.0
  0
VERTEX
  5
28E9
  8
CUT_LINES
 10
-399.473273404508177
 20
1006.8447504902100036
 30
0.0
 42
-0.4142135623730951
  0
VERTEX
  5
28EA
  8
CUT_LINES
 10
-402.4732883174315816
 20
1003.8449259543619974
 30
0.0
  0
VERTEX
  5
28EB
  8
CUT_LINES
 10
-465.4774994469148055
 20
1003.8454879773339599
 30
0.0
 42
-0.4142679224034727
  0
VERTEX
  5
28EC
  8
CUT_LINES
 10
-469.47747950646459
 20
1007.8462502178470004
 30
0.0
  0
VERTEX
  5
28ED
  8
CUT_LINES
 10
-469.4775391822544179
 20
1039.5930666429910616
 30
0.0
 42
-0.4141993687934908
  0
VERTEX
  5
28EE
  8
CUT_LINES
 10
-466.4775391822544179
 20
1042.5930666429910616
 30
0.0
  0
VERTEX
  5
28EF
  8
CUT_LINES
 10
-422.4729375642731952
 20
1042.5969708969530529
 30
0.0
 42
-0.1989123054166932
  0
VERTEX
  5
28F0
  8
CUT_LINES
 10
-420.3516215008098129
 20
1041.7182806197240552
 30
0.0
 42
2.4948851656155702
  0
VERTEX
  5
28F1
  8
CUT_LINES
 10
-420.4807670989201256
 20
1047.3403918626991072
 30
0.0
 42
-0.1697643099946278
  0
VERTEX
  5
28F2
  8
CUT_LINES
 10
-422.4819529548382775
 20
1046.5969709417809099
 30
0.0
  0
VERTEX
  5
28F3
  8
CUT_LINES
 10
-461.4755953070971941
 20
1046.5976231092608941
 30
0.0
 42
-0.4141020987995571
  0
VERTEX
  5
28F4
  8
CUT_LINES
 10
-464.4755801946067209
 20
1049.596496283794977
 30
0.0
  0
VERTEX
  5
28F5
  8
CUT_LINES
 10
-464.4775391822544748
 20
1089.5860039994329327
 30
0.0
 42
-0.4142135623730506
  0
VERTEX
  5
28F6
  8
CUT_LINES
 10
-461.4775391822545885
 20
1092.5860039994329327
 30
0.0
  0
VERTEX
  5
28F7
  8
CUT_LINES
 10
-422.4726892273006911
 20
1092.5947915496299174
 30
0.0
 42
-0.1989123054166939
  0
VERTEX
  5
28F8
  8
CUT_LINES
 10
-420.3513731638371951
 20
1091.7161012724020566
 30
0.0
 42
2.4948851655929851
  0
VERTEX
  5
28F9
  8
CUT_LINES
 10
-420.4805187619131743
 20
1097.338212515413943
 30
0.0
 42
-0.1697643099984428
  0
VERTEX
  5
28FA
  8
CUT_LINES
 10
-422.4817046178632722
 20
1096.5947915944580018
 30
0.0
  0
VERTEX
  5
28FB
  8
CUT_LINES
 10
-466.4768835443655917
 20
1096.5954929427600746
 30
0.0
 42
-0.4142135623730951
  0
VERTEX
  5
28FC
  8
CUT_LINES
 10
-469.4768686434604774
 20
1099.5955078435908945
 30
0.0
  0
VERTEX
  5
28FD
  8
CUT_LINES
 10
-469.4766612896747233
 20
1131.374565010869901
 30
0.0
 42
-0.414369569603158
  0
VERTEX
  5
28FE
  8
CUT_LINES
 10
-465.4775391822544179
 20
1135.374565010869901
 30
0.0
  0
VERTEX
  5
28FF
  8
CUT_LINES
 10
-402.47651156614819
 20
1135.374565010869901
 30
0.0
 42
-0.414213547438724
  0
VERTEX
  5
2900
  8
CUT_LINES
 10
-399.4765115662552262
 20
1132.374565010869901
 30
0.0
  0
VERTEX
  5
2901
  8
CUT_LINES
 10
-399.4784961493904234
 20
1119.6037245701240863
 30
0.0
 42
-0.1697654791252876
  0
VERTEX
  5
2902
  8
CUT_LINES
 10
-400.2219372347146873
 20
1117.6025314001560673
 30
0.0
 42
2.4948851656205879
  0
VERTEX
  5
2903
  8
CUT_LINES
 10
-394.5998273592342116
 20
1117.4733300367740867
 30
0.0
 42
-0.1989123054166962
  0
VERTEX
  5
2904
  8
CUT_LINES
 10
-395.4784964791583093
 20
1119.5946548638798959
 30
0.0
  0
VERTEX
  5
2905
  8
CUT_LINES
 10
-395.4763326762845281
 20
1144.3449290347080023
 30
0.0
  0
VERTEX
  5
2906
  8
CUT_LINES
 10
-399.4762770309322946
 20
1144.3449489022559646
 30
0.0
  0
VERTEX
  5
2907
  8
CUT_LINES
 10
-399.4762571631085848
 20
1148.3449489022070793
 30
0.0
  0
VERTEX
  5
2908
  8
CUT_LINES
 10
-397.4762571631334822
 20
1148.3449389682939454
 30
0.0
  0
VERTEX
  5
2909
  8
CUT_LINES
 10
-397.4760701667121907
 20
1152.3508154903049672
 30
0.0
 42
0.4142362620490875
  0
VERTEX
  5
290A
  8
CUT_LINES
 10
-401.4762490098104877
 20
1156.350946644736041
 30
0.0
  0
VERTEX
  5
290B
  8
CUT_LINES
 10
-477.4764315512391022
 20
1156.3455475781529458
 30
0.0
 42
0.4142135623730951
  0
VERTEX
  5
290C
  8
CUT_LINES
 10
-490.4764961215061021
 20
1143.3456121487399741
 30
0.0
  0
VERTEX
  5
290D
  8
CUT_LINES
 10
-490.4767568866931242
 20
1122.0956121493879891
 30
0.0
 42
-0.1783742124821965
  0
VERTEX
  5
290E
  8
CUT_LINES
 10
-490.4772784170675095
 20
1017.0956121506840191
 30
0.0
  0
VERTEX
  5
290F
  8
CUT_LINES
 10
-490.4775391822545885
 20
995.8456121513311246
 30
0.0
 42
0.4142135623730951
  0
VERTEX
  5
2910
  8
CUT_LINES
 10
-477.4776037528421853
 20
982.845547581064352
 30
0.0
  0
VERTEX
  5
2911
  8
CUT_LINES
 10
-267.4776687688842003
 20
982.844082180546593
 30
0.0
 42
0.4142135623730951
  0
VERTEX
  5
2912
  8
CUT_LINES
 10
-254.4776041986173141
 20
995.8440176099593373
 30
0.0
  0
VERTEX
  5
2913
  8
CUT_LINES
 10
-254.477343433430292
 20
1017.0940176093090486
 30
0.0
 42
-0.1783742124821994
  0
VERTEX
  5
2914
  8
CUT_LINES
 10
-254.476821903055793
 20
1122.0940176080180208
 30
0.0
  0
VERTEX
  5
2915
  8
CUT_LINES
 10
-254.4765611378687993
 20
1143.3440176073679595
 30
0.0
 42
0.4142135623730951
  0
VERTEX
  5
2916
  8
CUT_LINES
 10
-267.4764965672811172
 20
1156.3440821776350731
 30
0.0
  0
VERTEX
  5
2917
  8
CUT_LINES
 10
-343.4761644475270828
 20
1156.344670752311913
 30
0.0
 42
0.4142056373764694
  0
VERTEX
  5
2918
  8
CUT_LINES
 10
-347.476184313299882
 20
1152.3447988510120013
 30
0.0
  0
VERTEX
  5
2919
  8
CUT_LINES
 10
-347.4764074130616791
 20
1148.3447027017509754
 30
0.0
  0
VERTEX
  5
291A
  8
CUT_LINES
 10
-345.476407413086406
 20
1148.3446927678398879
 30
0.0
  0
VERTEX
  5
291B
  8
CUT_LINES
 10
-345.4764272809104
 20
1144.3446927678890006
 30
0.0
  0
VERTEX
  5
291C
  8
CUT_LINES
 10
-349.4763716355579959
 20
1144.3447126354360535
 30
0.0
  0
SEQEND
  5
291D
  8
CUT_LINES
  0
INSERT
  5
24BB
  8
CONSTRUCT
  2
*U23
 10
0.0
 20
0.0
 30
0.0
  0
POLYLINE
  5
24BC
  8
CUT_LINES
 66
     1
 10
0.0
 20
0.0
 30
0.0
 70
     1
  0
VERTEX
  5
2924
  8
CUT_LINES
 10
-127.6433554018801999
 20
831.2213143886485796
 30
0.0
  0
VERTEX
  5
2925
  8
CUT_LINES
 10
-127.6433554018801004
 20
954.7512147208743727
 30
0.0
 42
-0.414213562373095
  0
VERTEX
  5
2926
  8
CUT_LINES
 10
-122.6433554018801999
 20
959.7512147208743727
 30
0.0
  0
VERTEX
  5
2927
  8
CUT_LINES
 10
63.3566445981198285
 20
959.7512147208746001
 30
0.0
 42
-0.4142135623730951
  0
VERTEX
  5
2928
  8
CUT_LINES
 10
68.3566445981198285
 20
954.7512147208743727
 30
0.0
  0
VERTEX
  5
2929
  8
CUT_LINES
 10
68.3566445981197859
 20
831.2213143886485796
 30
0.0
 42
-0.4142135623730951
  0
VERTEX
  5
292A
  8
CUT_LINES
 10
63.3566445981198001
 20
826.2213143886486932
 30
0.0
  0
VERTEX
  5
292B
  8
CUT_LINES
 10
-122.6433554018801999
 20
826.2213143886486932
 30
0.0
 42
-0.4142135623730953
  0
SEQEND
  5
292C
  8
CUT_LINES
  0
POLYLINE
  5
24BD
  8
ENGRAVE
 66
     1
 10
0.0
 20
0.0
 30
0.0
 70
     1
  0
VERTEX
  5
292D
  8
ENGRAVE
 10
-132.6433554018801999
 20
831.2213143886485796
 30
0.0
  0
VERTEX
  5
292E
  8
ENGRAVE
 10
-132.6433554018800862
 20
954.7512147208743727
 30
0.0
 42
-0.4142135623730968
  0
VERTEX
  5
292F
  8
ENGRAVE
 10
-122.6433554018801999
 20
964.751214720874259
 30
0.0
  0
VERTEX
  5
2930
  8
ENGRAVE
 10
63.3566445981196011
 20
964.751214720874259
 30
0.0
 42
-0.4142135623730951
  0
VERTEX
  5
2931
  8
ENGRAVE
 10
73.3566445981195869
 20
954.7512147208743727
 30
0.0
  0
VERTEX
  5
2932
  8
ENGRAVE
 10
73.3566445981197859
 20
831.2213143886485796
 30
0.0
 42
-0.4142135623730951
  0
VERTEX
  5
2933
  8
ENGRAVE
 10
63.3566445981195727
 20
821.2213143886485796
 30
0.0
  0
VERTEX
  5
2934
  8
ENGRAVE
 10
-122.6433554018801999
 20
821.2213143886485796
 30
0.0
 42
-0.4142135623730951
  0
SEQEND
  5
2935
  8
ENGRAVE
  0
INSERT
  5
24BE
  8
CONSTRUCT
  2
*U24
 10
0.0
 20
0.0
 30
0.0
  0
POLYLINE
  5
24C1
  8
CUT_LINES
 66
     1
 10
0.0
 20
0.0
 30
0.0
 70
     1
  0
VERTEX
  5
293A
  8
CUT_LINES
 10
88.3566445981197148
 20
641.938357480000036
 30
0.0
 42
0.1180474880344784
  0
VERTEX
  5
293B
  8
CUT_LINES
 10
88.3566445981198285
 20
789.4383574800007182
 30
0.0
  0
VERTEX
  5
293C
  8
CUT_LINES
 10
88.3566445981198285
 20
789.4682578122267387
 30
0.0
 42
0.4142135623730951
  0
VERTEX
  5
293D
  8
CUT_LINES
 10
75.3566445981198569
 20
802.468257812226625
 30
0.0
  0
VERTEX
  5
293E
  8
CUT_LINES
 10
-134.6433554018809957
 20
802.468257812226625
 30
0.0
 42
0.4142135623730951
  0
VERTEX
  5
293F
  8
CUT_LINES
 10
-147.6433554018809957
 20
789.4682578122267387
 30
0.0
  0
VERTEX
  5
2940
  8
CUT_LINES
 10
-147.6433554018809957
 20
789.5631264040262067
 30
0.0
 42
0.118252858208638
  0
VERTEX
  5
2941
  8
CUT_LINES
 10
-147.6433554018809957
 20
641.8135885559752296
 30
0.0
  0
VERTEX
  5
2942
  8
CUT_LINES
 10
-147.6433554018809957
 20
641.9383574800007182
 30
0.0
 42
0.4142135623730951
  0
VERTEX
  5
2943
  8
CUT_LINES
 10
-134.6433554018811094
 20
628.9383574800007182
 30
0.0
  0
VERTEX
  5
2944
  8
CUT_LINES
 10
75.3566445981197433
 20
628.9383574800003771
 30
0.0
 42
0.4142135623730951
  0
VERTEX
  5
2945
  8
CUT_LINES
 10
88.3566445981197859
 20
641.9383574800001497
 30
0.0
  0
SEQEND
  5
2946
  8
CUT_LINES
  0
POLYLINE
  5
24C2
  8
CUT_LINES
 66
     1
 10
0.0
 20
0.0
 30
0.0
 70
     1
  0
VERTEX
  5
2947
  8
CUT_LINES
 10
88.3566445981197859
 20
819.2213143886482385
 30
0.0
 42
0.1180474880344784
  0
VERTEX
  5
2948
  8
CUT_LINES
 10
88.3566445981198711
 20
966.7213143886486932
 30
0.0
  0
VERTEX
  5
2949
  8
CUT_LINES
 10
88.3566445981198711
 20
966.7512147208750548
 30
0.0
 42
0.4142135623730951
  0
VERTEX
  5
294A
  8
CUT_LINES
 10
75.3566445981198854
 20
979.7512147208747137
 30
0.0
  0
VERTEX
  5
294B
  8
CUT_LINES
 10
-134.6433554018809104
 20
979.7512147208751685
 30
0.0
 42
0.4142135623730951
  0
VERTEX
  5
294C
  8
CUT_LINES
 10
-147.6433554018809104
 20
966.7512147208750548
 30
0.0
  0
VERTEX
  5
294D
  8
CUT_LINES
 10
-147.6433554018809104
 20
966.8460833126741818
 30
0.0
 42
0.118252858208638
  0
VERTEX
  5
294E
  8
CUT_LINES
 10
-147.6433554018809957
 20
819.0965454646235457
 30
0.0
  0
VERTEX
  5
294F
  8
CUT_LINES
 10
-147.6433554018809957
 20
819.2213143886486932
 30
0.0
 42
0.4142135623730951
  0
VERTEX
  5
2950
  8
CUT_LINES
 10
-134.6433554018809957
 20
806.2213143886485796
 30
0.0
  0
VERTEX
  5
2951
  8
CUT_LINES
 10
75.3566445981198143
 20
806.2213143886485796
 30
0.0
 42
0.4142135623730951
  0
VERTEX
  5
2952
  8
CUT_LINES
 10
88.3566445981198285
 20
819.2213143886482385
 30
0.0
  0
SEQEND
  5
2953
  8
CUT_LINES
  0
CIRCLE
  5
24C3
  8
HOLES
 10
132.7106912005797881
 20
715.6883574800001497
 30
0.0
 40
1.5
  0
CIRCLE
  5
24C4
  8
HOLES
 10
122.7106912005795039
 20
665.6883574800001497
 30
0.0
 40
1.5
  0
CIRCLE
  5
24C5
  8
HOLES
 10
122.7106912005795039
 20
655.6883574800003771
 30
0.0
 40
1.5
  0
CIRCLE
  5
24C6
  8
HOLES
 10
122.7106912005796033
 20
775.6883574800001497
 30
0.0
 40
1.5
  0
CIRCLE
  5
24C7
  8
HOLES
 10
122.7106912005796033
 20
755.6883574800002634
 30
0.0
 40
1.5
  0
CIRCLE
  5
24C8
  8
HOLES
 10
122.7106912005796033
 20
765.6883574800001497
 30
0.0
 40
1.5
  0
CIRCLE
  5
24C9
  8
HOLES
 10
122.7106912005795039
 20
675.6883574800003771
 30
0.0
 40
1.5
  0
CIRCLE
  5
24CA
  8
HOLES
 10
122.7106912005795039
 20
695.6883574800001497
 30
0.0
 40
1.5
  0
CIRCLE
  5
24CB
  8
HOLES
 10
122.7106912005796033
 20
735.6883574800001497
 30
0.0
 40
1.5
  0
CIRCLE
  5
24CC
  8
HOLES
 10
122.7106912005795039
 20
725.6883574800001497
 30
0.0
 40
1.5
  0
CIRCLE
  5
24CD
  8
HOLES
 10
122.7106912005795039
 20
705.6883574800002634
 30
0.0
 40
1.5
  0
CIRCLE
  5
24CE
  8
HOLES
 10
122.7106912005795039
 20
685.6883574800001497
 30
0.0
 40
1.5
  0
CIRCLE
  5
24CF
  8
HOLES
 10
122.7106912005796033
 20
745.6883574800001497
 30
0.0
 40
1.5
  0
CIRCLE
  5
24D0
  8
HOLES
 10
122.7106912005798023
 20
715.6883574799998087
 30
0.0
 40
1.5
  0
CIRCLE
  5
24D1
  8
HOLES
 10
292.7106912005799018
 20
715.6883574800004908
 30
0.0
 40
1.5
  0
CIRCLE
  5
24D2
  8
HOLES
 10
302.7106912005800154
 20
675.6883574800006045
 30
0.0
 40
1.5
  0
CIRCLE
  5
24D3
  8
HOLES
 10
302.7106912005800154
 20
695.6883574800007182
 30
0.0
 40
1.5
  0
CIRCLE
  5
24D4
  8
HOLES
 10
302.7106912005800154
 20
735.6883574800001497
 30
0.0
 40
1.5
  0
CIRCLE
  5
24D5
  8
HOLES
 10
302.7106912005800154
 20
745.6883574800006045
 30
0.0
 40
1.5
  0
CIRCLE
  5
24D6
  8
HOLES
 10
302.7106912005800154
 20
725.6883574800006045
 30
0.0
 40
1.5
  0
CIRCLE
  5
24D7
  8
HOLES
 10
302.7106912005800154
 20
705.6883574800007182
 30
0.0
 40
1.5
  0
CIRCLE
  5
24D8
  8
HOLES
 10
302.7106912005800154
 20
685.6883574800007182
 30
0.0
 40
1.5
  0
CIRCLE
  5
24D9
  8
HOLES
 10
302.7106912005800154
 20
755.6883574800003771
 30
0.0
 40
1.5
  0
CIRCLE
  5
24DA
  8
HOLES
 10
302.7106912005800154
 20
775.6883574800006045
 30
0.0
 40
1.5
  0
CIRCLE
  5
24DB
  8
HOLES
 10
302.7106912005800154
 20
765.6883574800004908
 30
0.0
 40
1.5
  0
CIRCLE
  5
24DC
  8
HOLES
 10
302.7106912005800154
 20
665.6883574800007182
 30
0.0
 40
1.5
  0
CIRCLE
  5
24DD
  8
HOLES
 10
302.7106912005796744
 20
655.6883574800007182
 30
0.0
 40
1.5
  0
CIRCLE
  5
24DE
  8
HOLES
 10
302.7106912005800154
 20
715.6883574800004908
 30
0.0
 40
1.5
  0
CIRCLE
  5
24DF
  8
HOLES
 10
-109.624899119711003
 20
715.688357480000036
 30
0.0
 40
0.75
  0
CIRCLE
  5
24E0
  8
HOLES
 10
-119.624899119711003
 20
745.6883574800001497
 30
0.0
 40
0.75
  0
CIRCLE
  5
24E1
  8
HOLES
 10
-119.6248991197111025
 20
685.6883574800001497
 30
0.0
 40
0.75
  0
CIRCLE
  5
24E2
  8
HOLES
 10
-119.624899119711003
 20
705.6883574800002634
 30
0.0
 40
0.75
  0
CIRCLE
  5
24E3
  8
HOLES
 10
-119.624899119711003
 20
725.6883574800001497
 30
0.0
 40
0.75
  0
CIRCLE
  5
24E4
  8
HOLES
 10
-119.624899119711003
 20
735.6883574800001497
 30
0.0
 40
0.75
  0
CIRCLE
  5
24E5
  8
HOLES
 10
-119.6248991197111025
 20
695.6883574800001497
 30
0.0
 40
0.75
  0
CIRCLE
  5
24E6
  8
HOLES
 10
-119.6248991197111025
 20
675.6883574800001497
 30
0.0
 40
0.75
  0
CIRCLE
  5
24E7
  8
HOLES
 10
-119.624899119711003
 20
765.6883574800001497
 30
0.0
 40
0.75
  0
CIRCLE
  5
24E8
  8
HOLES
 10
-119.624899119711003
 20
755.6883574800002634
 30
0.0
 40
0.75
  0
CIRCLE
  5
24E9
  8
HOLES
 10
-119.624899119711003
 20
775.6883574800001497
 30
0.0
 40
0.75
  0
CIRCLE
  5
24EA
  8
HOLES
 10
-119.6248991197111025
 20
655.6883574800001497
 30
0.0
 40
0.75
  0
CIRCLE
  5
24EB
  8
HOLES
 10
-119.6248991197111025
 20
665.6883574800001497
 30
0.0
 40
0.75
  0
CIRCLE
  5
24EC
  8
HOLES
 10
-119.624899119711003
 20
775.6883574800001497
 30
0.0
 40
0.75
  0
CIRCLE
  5
24ED
  8
HOLES
 10
-119.624899119711003
 20
715.688357480000036
 30
0.0
 40
0.75
  0
CIRCLE
  5
24EE
  8
HOLES
 10
50.3751008802889828
 20
715.6883574800001497
 30
0.0
 40
0.75
  0
CIRCLE
  5
24EF
  8
HOLES
 10
60.3751008802889828
 20
655.6883574800001497
 30
0.0
 40
0.75
  0
CIRCLE
  5
24F0
  8
HOLES
 10
60.3751008802889828
 20
665.6883574800001497
 30
0.0
 40
0.75
  0
CIRCLE
  5
24F1
  8
HOLES
 10
60.3751008802889828
 20
765.6883574800001497
 30
0.0
 40
0.75
  0
CIRCLE
  5
24F2
  8
HOLES
 10
60.3751008802889828
 20
775.6883574800001497
 30
0.0
 40
0.75
  0
CIRCLE
  5
24F3
  8
HOLES
 10
60.3751008802889828
 20
755.6883574800001497
 30
0.0
 40
0.75
  0
CIRCLE
  5
24F4
  8
HOLES
 10
60.3751008802889828
 20
685.6883574800001497
 30
0.0
 40
0.75
  0
CIRCLE
  5
24F5
  8
HOLES
 10
60.3751008802889828
 20
705.6883574800001497
 30
0.0
 40
0.75
  0
CIRCLE
  5
24F6
  8
HOLES
 10
60.3751008802889828
 20
725.6883574800001497
 30
0.0
 40
0.75
  0
CIRCLE
  5
24F7
  8
HOLES
 10
60.3751008802889828
 20
745.6883574800001497
 30
0.0
 40
0.75
  0
CIRCLE
  5
24F8
  8
HOLES
 10
60.3751008802889828
 20
735.6883574800001497
 30
0.0
 40
0.75
  0
CIRCLE
  5
24F9
  8
HOLES
 10
60.3751008802889828
 20
695.6883574800001497
 30
0.0
 40
0.75
  0
CIRCLE
  5
24FA
  8
HOLES
 10
60.3751008802889828
 20
675.6883574800001497
 30
0.0
 40
0.75
  0
CIRCLE
  5
24FB
  8
HOLES
 10
60.3751008802889828
 20
775.6883574800001497
 30
0.0
 40
0.75
  0
CIRCLE
  5
24FC
  8
HOLES
 10
60.3751008802889828
 20
715.6883574800001497
 30
0.0
 40
0.75
  0
POLYLINE
  5
24FD
  8
CUT_LINES
 66
     1
 10
0.0
 20
0.0
 30
0.0
  0
VERTEX
  5
2954
  8
CUT_LINES
 10
-656.594299085444618
 20
1009.4850456688500344
 30
0.0
  0
VERTEX
  5
2955
  8
CUT_LINES
 10
-631.8351201522491465
 20
1009.4829188270970235
 30
0.0
 42
-0.179777427967542
  0
VERTEX
  5
2956
  8
CUT_LINES
 10
-629.8591708793686621
 20
1008.7453141268860008
 30
0.0
 42
2.4997070363619902
  0
VERTEX
  5
2957
  8
CUT_LINES
 10
-629.7226681498751759
 20
1014.3593973650559974
 30
0.0
 42
-0.1989123054166977
  0
VERTEX
  5
2958
  8
CUT_LINES
 10
-631.8439929769813261
 20
1013.4807282451309902
 30
0.0
  0
VERTEX
  5
2959
  8
CUT_LINES
 10
-644.5941966277991924
 20
1013.484803301531997
 30
0.0
 42
-0.4173269645227075
  0
VERTEX
  5
295A
  8
CUT_LINES
 10
-647.6241514609446313
 20
1016.4838648893579602
 30
0.0
  0
VERTEX
  5
295B
  8
CUT_LINES
 10
-647.6241513491982005
 20
1079.4848103896720204
 30
0.0
 42
-0.4161934456946243
  0
VERTEX
  5
295C
  8
CUT_LINES
 10
-643.5937083636654279
 20
1083.484783330530945
 30
0.0
  0
VERTEX
  5
295D
  8
CUT_LINES
 10
-611.8437083644423637
 20
1083.4844704123070187
 30
0.0
 42
-0.4142135623730951
  0
VERTEX
  5
295E
  8
CUT_LINES
 10
-608.8437232653471938
 20
1080.4844555114759714
 30
0.0
  0
VERTEX
  5
295F
  8
CUT_LINES
 10
-608.855930014160208
 20
1036.4958214089019748
 30
0.0
 42
-0.1697643100033611
  0
VERTEX
  5
2960
  8
CUT_LINES
 10
-609.5993708147226471
 20
1034.494642938080915
 30
0.0
 42
2.494885165565603
  0
VERTEX
  5
2961
  8
CUT_LINES
 10
-603.9772609391625338
 20
1034.3654415747960229
 30
0.0
 42
-0.1989122831575435
  0
VERTEX
  5
2962
  8
CUT_LINES
 10
-604.8559300590876546
 20
1036.4867661816410873
 30
0.0
  0
VERTEX
  5
2963
  8
CUT_LINES
 10
-604.8437729349560641
 20
1075.4839284595370827
 30
0.0
 42
-0.4142135623730951
  0
VERTEX
  5
2964
  8
CUT_LINES
 10
-601.8437580341251305
 20
1078.4839135586319117
 30
0.0
  0
VERTEX
  5
2965
  8
CUT_LINES
 10
-561.8437580346185314
 20
1078.4837148803949276
 30
0.0
 42
-0.4142135623730951
  0
VERTEX
  5
2966
  8
CUT_LINES
 10
-558.8437729355237025
 20
1075.4836999795641077
 30
0.0
  0
VERTEX
  5
2967
  8
CUT_LINES
 10
-558.8581091338046463
 20
1036.4955848209849592
 30
0.0
 42
-0.1697652444872435
  0
VERTEX
  5
2968
  8
CUT_LINES
 10
-559.6015501620513533
 20
1034.4943946011010212
 30
0.0
 42
2.494885165561417
  0
VERTEX
  5
2969
  8
CUT_LINES
 10
-553.9794402864852145
 20
1034.3651932378229503
 30
0.0
 42
-0.1991324534169365
  0
VERTEX
  5
296A
  8
CUT_LINES
 10
-554.8559300623755917
 20
1036.4859801006280122
 30
0.0
  0
VERTEX
  5
296B
  8
CUT_LINES
 10
-554.8402590427776886
 20
1080.4840138980359825
 30
0.0
 42
-0.4147178860911182
  0
VERTEX
  5
296C
  8
CUT_LINES
 10
-551.844251128718156
 20
1083.4838648893580739
 30
0.0
  0
VERTEX
  5
296D
  8
CUT_LINES
 10
-520.0937083659598557
 20
1083.483859476725911
 30
0.0
 42
-0.4142135623730951
  0
VERTEX
  5
296E
  8
CUT_LINES
 10
-516.093728233833076
 20
1079.4838396089510297
 30
0.0
  0
VERTEX
  5
296F
  8
CUT_LINES
 10
-516.0942144221585295
 20
1016.4810531098820547
 30
0.0
 42
-0.4142135623730951
  0
VERTEX
  5
2970
  8
CUT_LINES
 10
-519.0942293229895768
 20
1013.4810680107869985
 30
0.0
  0
VERTEX
  5
2971
  8
CUT_LINES
 10
-531.844062919336011
 20
1013.4818097157790362
 30
0.0
 42
-0.1989123054166951
  0
VERTEX
  5
2972
  8
CUT_LINES
 10
-533.9653088350828511
 20
1014.3604999951189711
 30
0.0
 42
2.4948851655815241
  0
VERTEX
  5
2973
  8
CUT_LINES
 10
-533.836163237024266
 20
1008.7383887520879853
 30
0.0
 42
-0.1697669118055889
  0
VERTEX
  5
2974
  8
CUT_LINES
 10
-531.8349446691190678
 20
1009.4818103065369996
 30
0.0
  0
VERTEX
  5
2975
  8
CUT_LINES
 10
-519.0941790430968013
 20
1009.4810680129479579
 30
0.0
 42
-0.4142135623730951
  0
VERTEX
  5
2976
  8
CUT_LINES
 10
-516.0942640917180597
 20
1006.4810531100049502
 30
0.0
  0
VERTEX
  5
2977
  8
CUT_LINES
 10
-516.0944627348760605
 20
966.4881157540575032
 30
0.0
 42
-0.4142135623730951
  0
VERTEX
  5
2978
  8
CUT_LINES
 10
-519.0944776357068804
 20
963.4881306549625606
 30
0.0
  0
VERTEX
  5
2979
  8
CUT_LINES
 10
-531.8444016718383409
 20
963.4839890531213769
 30
0.0
 42
-0.1989123054166925
  0
VERTEX
  5
297A
  8
CUT_LINES
 10
-533.965557172055469
 20
964.3626793424424477
 30
0.0
 42
2.4948851655660609
  0
VERTEX
  5
297B
  8
CUT_LINES
 10
-533.8364115740203033
 20
958.7405680993850865
 30
0.0
 42
-0.1697702653552036
  0
VERTEX
  5
297C
  8
CUT_LINES
 10
-531.8351508426983401
 20
959.4839904698758346
 30
0.0
  0
VERTEX
  5
297D
  8
CUT_LINES
 10
-519.0943369402843928
 20
959.4881306671043149
 30
0.0
 42
-0.4142135623730951
  0
VERTEX
  5
297E
  8
CUT_LINES
 10
-516.0945124044355907
 20
956.4881157541809671
 30
0.0
  0
VERTEX
  5
297F
  8
CUT_LINES
 10
-516.095074427408008
 20
893.4839046246977432
 30
0.0
 42
-0.4142679224034727
  0
VERTEX
  5
2980
  8
CUT_LINES
 10
-520.0958366679212759
 20
889.4839245651479587
 30
0.0
  0
VERTEX
  5
2981
  8
CUT_LINES
 10
-551.8426530930654508
 20
889.4838648893581876
 30
0.0
 42
-0.4141993687934908
  0
VERTEX
  5
2982
  8
CUT_LINES
 10
-554.8426530930654508
 20
892.4838648893580739
 30
0.0
  0
VERTEX
  5
2983
  8
CUT_LINES
 10
-554.8465573470271011
 20
936.4884665073394672
 30
0.0
 42
-0.1989123054166932
  0
VERTEX
  5
2984
  8
CUT_LINES
 10
-553.9678670697984444
 20
938.6097825708031905
 30
0.0
 42
2.4948851656155702
  0
VERTEX
  5
2985
  8
CUT_LINES
 10
-559.5899783127729279
 20
938.4806369726926505
 30
0.0
 42
-0.1697643099946278
  0
VERTEX
  5
2986
  8
CUT_LINES
 10
-558.8465573918551854
 20
936.4794511167743849
 30
0.0
  0
VERTEX
  5
2987
  8
CUT_LINES
 10
-558.8472095593351696
 20
897.4858087645158093
 30
0.0
 42
-0.4141020987995571
  0
VERTEX
  5
2988
  8
CUT_LINES
 10
-561.8460827338690251
 20
894.4858238770060552
 30
0.0
  0
VERTEX
  5
2989
  8
CUT_LINES
 10
-601.8355904495067534
 20
894.4838648893580739
 30
0.0
 42
-0.4142135623730506
  0
VERTEX
  5
298A
  8
CUT_LINES
 10
-604.8355904495067534
 20
897.4838648893581876
 30
0.0
  0
VERTEX
  5
298B
  8
CUT_LINES
 10
-604.8443779997039655
 20
936.4887148443119713
 30
0.0
 42
-0.1989123054166939
  0
VERTEX
  5
298C
  8
CUT_LINES
 10
-603.9656877224756499
 20
938.610030907775581
 30
0.0
 42
2.4948851655929851
  0
VERTEX
  5
298D
  8
CUT_LINES
 10
-609.5877989654879912
 20
938.4808853096997154
 30
0.0
 42
-0.1697643099984428
  0
VERTEX
  5
298E
  8
CUT_LINES
 10
-608.844378044532732
 20
936.4796994537497312
 30
0.0
  0
VERTEX
  5
298F
  8
CUT_LINES
 10
-608.8450793928341227
 20
892.4845205272473549
 30
0.0
 42
-0.4142135623730951
  0
VERTEX
  5
2990
  8
CUT_LINES
 10
-611.8450942936648289
 20
889.4845354281520713
 30
0.0
  0
VERTEX
  5
2991
  8
CUT_LINES
 10
-643.6241514609441765
 20
889.4847427819382801
 30
0.0
 42
-0.414369569603158
  0
VERTEX
  5
2992
  8
CUT_LINES
 10
-647.6241514609441765
 20
893.4838648893585287
 30
0.0
  0
VERTEX
  5
2993
  8
CUT_LINES
 10
-647.6241514609441765
 20
956.4848925054643587
 30
0.0
 42
-0.414213547438724
  0
VERTEX
  5
2994
  8
CUT_LINES
 10
-644.6241514609446313
 20
959.4848925053577204
 30
0.0
  0
VERTEX
  5
2995
  8
CUT_LINES
 10
-631.8533110201981344
 20
959.4829079222223527
 30
0.0
 42
-0.1697654791252876
  0
VERTEX
  5
2996
  8
CUT_LINES
 10
-629.852117850229547
 20
958.7394668368981456
 30
0.0
 42
2.4948851656205879
  0
VERTEX
  5
2997
  8
CUT_LINES
 10
-629.7229164868481348
 20
964.3615767123786782
 30
0.0
 42
-0.1989123054166962
  0
VERTEX
  5
2998
  8
CUT_LINES
 10
-631.8442413139538303
 20
963.4829075924542394
 30
0.0
  0
VERTEX
  5
2999
  8
CUT_LINES
 10
-656.5945154847827325
 20
963.4850713953281911
 30
0.0
  0
VERTEX
  5
299A
  8
CUT_LINES
 10
-656.5945353523300128
 20
959.4851270406803678
 30
0.0
  0
VERTEX
  5
299B
  8
CUT_LINES
 10
-660.594535352280559
 20
959.4851469085042481
 30
0.0
  0
VERTEX
  5
299C
  8
CUT_LINES
 10
-660.5945254183684483
 20
961.4851469084793507
 30
0.0
  0
VERTEX
  5
299D
  8
CUT_LINES
 10
-664.6004019403790153
 20
961.4853339049006991
 30
0.0
 42
0.4142362620490875
  0
VERTEX
  5
299E
  8
CUT_LINES
 10
-668.6005330948105438
 20
957.485155061802061
 30
0.0
  0
VERTEX
  5
299F
  8
CUT_LINES
 10
-668.5951340282269939
 20
881.4849725203737307
 30
0.0
 42
0.4142135623730951
  0
VERTEX
  5
29A0
  8
CUT_LINES
 10
-655.5951985988148181
 20
868.4849079501066171
 30
0.0
  0
VERTEX
  5
29A1
  8
CUT_LINES
 10
-634.3451985994627194
 20
868.484647184919595
 30
0.0
 42
-0.1783742124821965
  0
VERTEX
  5
29A2
  8
CUT_LINES
 10
-529.3451986007576124
 20
868.4841256545453234
 30
0.0
  0
VERTEX
  5
29A3
  8
CUT_LINES
 10
-508.0951986014054
 20
868.4838648893580739
 30
0.0
 42
0.4142135623730951
  0
VERTEX
  5
29A4
  8
CUT_LINES
 10
-495.0951340311385138
 20
881.4838003187705908
 30
0.0
  0
VERTEX
  5
29A5
  8
CUT_LINES
 10
-495.0936686306205843
 20
1091.4837353027280642
 30
0.0
 42
0.4142135623730951
  0
VERTEX
  5
29A6
  8
CUT_LINES
 10
-508.093604060032817
 20
1104.4837998729949504
 30
0.0
  0
VERTEX
  5
29A7
  8
CUT_LINES
 10
-529.3436040593834377
 20
1104.4840606381819725
 30
0.0
 42
-0.1783742124821994
  0
VERTEX
  5
29A8
  8
CUT_LINES
 10
-634.3436040580922963
 20
1104.4845821685569263
 30
0.0
  0
VERTEX
  5
29A9
  8
CUT_LINES
 10
-655.5936040574423487
 20
1104.4848429337439484
 30
0.0
 42
0.4142135623730951
  0
VERTEX
  5
29AA
  8
CUT_LINES
 10
-668.5936686277092349
 20
1091.4849075043321136
 30
0.0
  0
VERTEX
  5
29AB
  8
CUT_LINES
 10
-668.5942572023859611
 20
1015.4852396240860344
 30
0.0
 42
0.4142056373764694
  0
VERTEX
  5
29AC
  8
CUT_LINES
 10
-664.5943853010857083
 20
1011.4852197583129509
 30
0.0
  0
VERTEX
  5
29AD
  8
CUT_LINES
 10
-660.5942891518252509
 20
1011.4849966585510401
 30
0.0
  0
VERTEX
  5
29AE
  8
CUT_LINES
 10
-660.5942792179134813
 20
1013.484996658526029
 30
0.0
  0
VERTEX
  5
29AF
  8
CUT_LINES
 10
-656.5942792179630487
 20
1013.484976790702035
 30
0.0
  0
VERTEX
  5
29B0
  8
CUT_LINES
 10
-656.5942990855102153
 20
1009.4850324360550076
 30
0.0
  0
SEQEND
  5
29B1
  8
CUT_LINES
  0
POLYLINE
  5
24FE
  8
CUT_LINES
 66
     1
 10
0.0
 20
0.0
 30
0.0
  0
VERTEX
  5
29B2
  8
CUT_LINES
 10
-348.4435971366664262
 20
968.7671999354455465
 30
0.0
  0
VERTEX
  5
29B3
  8
CUT_LINES
 10
-348.4457239784197782
 20
944.008021002249734
 30
0.0
 42
-0.179777427967542
  0
VERTEX
  5
29B4
  8
CUT_LINES
 10
-349.1833286786305166
 20
942.0320717293695907
 30
0.0
 42
2.4997070363619902
  0
VERTEX
  5
29B5
  8
CUT_LINES
 10
-343.5692454404604064
 20
941.8955689998762182
 30
0.0
 42
-0.1989123054166977
  0
VERTEX
  5
29B6
  8
CUT_LINES
 10
-344.447914560384902
 20
944.0168938269822547
 30
0.0
  0
VERTEX
  5
29B7
  8
CUT_LINES
 10
-344.4438395039848047
 20
956.7670974778000073
 30
0.0
 42
-0.4173269645227075
  0
VERTEX
  5
29B8
  8
CUT_LINES
 10
-341.4447779161585004
 20
959.7970523109454462
 30
0.0
  0
VERTEX
  5
29B9
  8
CUT_LINES
 10
-278.4438324158446108
 20
959.7970521991992428
 30
0.0
 42
-0.4161934456946243
  0
VERTEX
  5
29BA
  8
CUT_LINES
 10
-274.4438594749847198
 20
955.7666092136662428
 30
0.0
  0
VERTEX
  5
29BB
  8
CUT_LINES
 10
-274.4441723932092145
 20
924.016609214443406
 30
0.0
 42
-0.4142135623730951
  0
VERTEX
  5
29BC
  8
CUT_LINES
 10
-277.4441872940399776
 20
921.016624115348236
 30
0.0
  0
VERTEX
  5
29BD
  8
CUT_LINES
 10
-321.4328213966143153
 20
921.0288308641612502
 30
0.0
 42
-0.1697643100033611
  0
VERTEX
  5
29BE
  8
CUT_LINES
 10
-323.4339998674353751
 20
921.7722716647236894
 30
0.0
 42
2.494885165565603
  0
VERTEX
  5
29BF
  8
CUT_LINES
 10
-323.5632012307206082
 20
916.1501617891636897
 30
0.0
 42
-0.1989122831575435
  0
VERTEX
  5
29C0
  8
CUT_LINES
 10
-321.441876623875487
 20
917.0288309090886969
 30
0.0
  0
VERTEX
  5
29C1
  8
CUT_LINES
 10
-282.4447143459788094
 20
917.0166737849567653
 30
0.0
 42
-0.4142135623730951
  0
VERTEX
  5
29C2
  8
CUT_LINES
 10
-279.4447292468836963
 20
914.0166588841261728
 30
0.0
  0
VERTEX
  5
29C3
  8
CUT_LINES
 10
-279.4449279251214762
 20
874.01665888461946
 30
0.0
 42
-0.4142135623730951
  0
VERTEX
  5
29C4
  8
CUT_LINES
 10
-282.4449428259522961
 20
871.0166737855244037
 30
0.0
  0
VERTEX
  5
29C5
  8
CUT_LINES
 10
-321.4330579845307057
 20
871.0310099838056885
 30
0.0
 42
-0.1697652444872435
  0
VERTEX
  5
29C6
  8
CUT_LINES
 10
-323.4342482044150984
 20
871.7744510120522818
 30
0.0
 42
2.494885165561417
  0
VERTEX
  5
29C7
  8
CUT_LINES
 10
-323.5634495676932261
 20
866.1523411364861431
 30
0.0
 42
-0.1991324534169365
  0
VERTEX
  5
29C8
  8
CUT_LINES
 10
-321.4426627048881073
 20
867.0288309123764066
 30
0.0
  0
VERTEX
  5
29C9
  8
CUT_LINES
 10
-277.4446289074799097
 20
867.0131598927785035
 30
0.0
 42
-0.4147178860911182
  0
VERTEX
  5
29CA
  8
CUT_LINES
 10
-274.444777916158273
 20
864.0171519787190846
 30
0.0
  0
VERTEX
  5
29CB
  8
CUT_LINES
 10
-274.4447833287904928
 20
832.2666092159608979
 30
0.0
 42
-0.4142135623730951
  0
VERTEX
  5
29CC
  8
CUT_LINES
 10
-278.4448031965649761
 20
828.2666290838340046
 30
0.0
  0
VERTEX
  5
29CD
  8
CUT_LINES
 10
-341.4475896956341217
 20
828.2671152721593444
 30
0.0
 42
-0.4142135623730951
  0
VERTEX
  5
29CE
  8
CUT_LINES
 10
-344.4475747947294053
 20
831.267130172990278
 30
0.0
  0
VERTEX
  5
29CF
  8
CUT_LINES
 10
-344.4468330897370834
 20
844.0169637693369395
 30
0.0
 42
-0.1989123054166951
  0
VERTEX
  5
29D0
  8
CUT_LINES
 10
-343.568142810396921
 20
846.138209685083666
 30
0.0
 42
2.4948851655815241
  0
VERTEX
  5
29D1
  8
CUT_LINES
 10
-349.1902540534277932
 20
846.0090640870253083
 30
0.0
 42
-0.1697669118055889
  0
VERTEX
  5
29D2
  8
CUT_LINES
 10
-348.4468324989791199
 20
844.0078455191199964
 30
0.0
  0
VERTEX
  5
29D3
  8
CUT_LINES
 10
-348.4475747925682185
 20
831.2670798930977298
 30
0.0
 42
-0.4142135623730951
  0
VERTEX
  5
29D4
  8
CUT_LINES
 10
-351.4475896955108283
 20
828.2671649417189883
 30
0.0
  0
VERTEX
  5
29D5
  8
CUT_LINES
 10
-391.4405270514586732
 20
828.2673635848767617
 30
0.0
 42
-0.4142135623730951
  0
VERTEX
  5
29D6
  8
CUT_LINES
 10
-394.4405121505539
 20
831.2673784857079227
 30
0.0
  0
VERTEX
  5
29D7
  8
CUT_LINES
 10
-394.4446537523950838
 20
844.0173025218391558
 30
0.0
 42
-0.1989123054166925
  0
VERTEX
  5
29D8
  8
CUT_LINES
 10
-393.5659634630740129
 20
846.1384580220562839
 30
0.0
 42
2.4948851655660609
  0
VERTEX
  5
29D9
  8
CUT_LINES
 10
-399.1880747061312036
 20
846.0093124240211182
 30
0.0
 42
-0.1697702653552036
  0
VERTEX
  5
29DA
  8
CUT_LINES
 10
-398.4446523356403986
 20
844.0080516926992686
 30
0.0
  0
VERTEX
  5
29DB
  8
CUT_LINES
 10
-398.4405121384118047
 20
831.2672377902853214
 30
0.0
 42
-0.4142135623730951
  0
VERTEX
  5
29DC
  8
CUT_LINES
 10
-401.440527051335323
 20
828.2674132544362919
 30
0.0
  0
VERTEX
  5
29DD
  8
CUT_LINES
 10
-464.4447381808183763
 20
828.2679752774085955
 30
0.0
 42
-0.4142679224034727
  0
VERTEX
  5
29DE
  8
CUT_LINES
 10
-468.4447182403682746
 20
832.2687375179222045
 30
0.0
  0
VERTEX
  5
29DF
  8
CUT_LINES
 10
-468.4447779161581025
 20
864.0155539430662657
 30
0.0
 42
-0.4141993687934908
  0
VERTEX
  5
29E0
  8
CUT_LINES
 10
-465.4447779161581025
 20
867.0155539430663794
 30
0.0
  0
VERTEX
  5
29E1
  8
CUT_LINES
 10
-421.4401762981768229
 20
867.0194581970275749
 30
0.0
 42
-0.1989123054166932
  0
VERTEX
  5
29E2
  8
CUT_LINES
 10
-419.3188602347133838
 20
866.140767919799373
 30
0.0
 42
2.4948851656155702
  0
VERTEX
  5
29E3
  8
CUT_LINES
 10
-419.4480058328235828
 20
871.7628791627739702
 30
0.0
 42
-0.1697643099946278
  0
VERTEX
  5
29E4
  8
CUT_LINES
 10
-421.4491916887419052
 20
871.0194582418558866
 30
0.0
  0
VERTEX
  5
29E5
  8
CUT_LINES
 10
-460.4428340410008786
 20
871.0201104093360982
 30
0.0
 42
-0.4141020987995571
  0
VERTEX
  5
29E6
  8
CUT_LINES
 10
-463.442818928510178
 20
874.0189835838699537
 30
0.0
  0
VERTEX
  5
29E7
  8
CUT_LINES
 10
-463.4447779161582162
 20
914.0084912995075683
 30
0.0
 42
-0.4142135623730506
  0
VERTEX
  5
29E8
  8
CUT_LINES
 10
-460.4447779161581025
 20
917.0084912995075683
 30
0.0
  0
VERTEX
  5
29E9
  8
CUT_LINES
 10
-421.4399279612043188
 20
917.0172788497047804
 30
0.0
 42
-0.1989123054166939
  0
VERTEX
  5
29EA
  8
CUT_LINES
 10
-419.3186118977408796
 20
916.1385885724766922
 30
0.0
 42
2.4948851655929851
  0
VERTEX
  5
29EB
  8
CUT_LINES
 10
-419.4477574958169157
 20
921.7606998154885787
 30
0.0
 42
-0.1697643099984428
  0
VERTEX
  5
29EC
  8
CUT_LINES
 10
-421.4489433517668999
 20
921.0172788945336606
 30
0.0
  0
VERTEX
  5
29ED
  8
CUT_LINES
 10
-465.4441222782692194
 20
921.0179802428347102
 30
0.0
 42
-0.4142135623730951
  0
VERTEX
  5
29EE
  8
CUT_LINES
 10
-468.4441073773641051
 20
924.0179951436656438
 30
0.0
  0
VERTEX
  5
29EF
  8
CUT_LINES
 10
-468.4439000235782942
 20
955.7970523109453325
 30
0.0
 42
-0.414369569603158
  0
VERTEX
  5
29F0
  8
CUT_LINES
 10
-464.4447779161579888
 20
959.7970523109452188
 30
0.0
  0
VERTEX
  5
29F1
  8
CUT_LINES
 10
-401.4437503000518177
 20
959.7970523109452188
 30
0.0
 42
-0.414213547438724
  0
VERTEX
  5
29F2
  8
CUT_LINES
 10
-398.443750300158797
 20
956.7970523109454462
 30
0.0
  0
VERTEX
  5
29F3
  8
CUT_LINES
 10
-398.4457348832939942
 20
944.0262118701991767
 30
0.0
 42
-0.1697654791252876
  0
VERTEX
  5
29F4
  8
CUT_LINES
 10
-399.189175968618315
 20
942.0250187002305893
 30
0.0
 42
2.4948851656205879
  0
VERTEX
  5
29F5
  8
CUT_LINES
 10
-393.5670660931377256
 20
941.8958173368487223
 30
0.0
 42
-0.1989123054166962
  0
VERTEX
  5
29F6
  8
CUT_LINES
 10
-394.4457352130619938
 20
944.0171421639546452
 30
0.0
  0
VERTEX
  5
29F7
  8
CUT_LINES
 10
-394.443571410188099
 20
968.7674163347835474
 30
0.0
  0
VERTEX
  5
29F8
  8
CUT_LINES
 10
-398.4435157648359791
 20
968.7674362023308277
 30
0.0
  0
VERTEX
  5
29F9
  8
CUT_LINES
 10
-398.4434958970122125
 20
972.7674362022814876
 30
0.0
  0
VERTEX
  5
29FA
  8
CUT_LINES
 10
-396.4434958970371099
 20
972.7674262683694906
 30
0.0
  0
VERTEX
  5
29FB
  8
CUT_LINES
 10
-396.4433089006158184
 20
976.7733027903798302
 30
0.0
 42
0.4142362620490875
  0
VERTEX
  5
29FC
  8
CUT_LINES
 10
-400.4434877437141154
 20
980.7734339448113587
 30
0.0
  0
VERTEX
  5
29FD
  8
CUT_LINES
 10
-476.4436702851426162
 20
980.7680348782280362
 30
0.0
 42
0.4142135623730951
  0
VERTEX
  5
29FE
  8
CUT_LINES
 10
-489.4437348554096161
 20
967.7680994488151782
 30
0.0
  0
VERTEX
  5
29FF
  8
CUT_LINES
 10
-489.4439956205968087
 20
946.5180994494636479
 30
0.0
 42
-0.1783742124821965
  0
VERTEX
  5
2A00
  8
CUT_LINES
 10
-489.4445171509710804
 20
841.5180994507586547
 30
0.0
  0
VERTEX
  5
2A01
  8
CUT_LINES
 10
-489.4447779161581025
 20
820.2680994514063286
 30
0.0
 42
0.4142135623730951
  0
VERTEX
  5
2A02
  8
CUT_LINES
 10
-476.4448424867459266
 20
807.2680348811394424
 30
0.0
  0
VERTEX
  5
2A03
  8
CUT_LINES
 10
-266.444907502787828
 20
807.2665694806213423
 30
0.0
 42
0.4142135623730951
  0
VERTEX
  5
2A04
  8
CUT_LINES
 10
-253.4448429325209133
 20
820.2665049100338592
 30
0.0
  0
VERTEX
  5
2A05
  8
CUT_LINES
 10
-253.444582167333806
 20
841.516504909384139
 30
0.0
 42
-0.1783742124821994
  0
VERTEX
  5
2A06
  8
CUT_LINES
 10
-253.4440606369595059
 20
946.5165049080932249
 30
0.0
  0
VERTEX
  5
2A07
  8
CUT_LINES
 10
-253.4437998717723985
 20
967.7665049074433909
 30
0.0
 42
0.4142135623730951
  0
VERTEX
  5
2A08
  8
CUT_LINES
 10
-266.4437353011846881
 20
980.7665694777099361
 30
0.0
  0
VERTEX
  5
2A09
  8
CUT_LINES
 10
-342.4434031814308241
 20
980.767158052386776
 30
0.0
 42
0.4142056373764694
  0
VERTEX
  5
2A0A
  8
CUT_LINES
 10
-346.4434230472035097
 20
976.7672861510867506
 30
0.0
  0
VERTEX
  5
2A0B
  8
CUT_LINES
 10
-346.4436461469653068
 20
972.7671900018262932
 30
0.0
  0
VERTEX
  5
2A0C
  8
CUT_LINES
 10
-344.4436461469900905
 20
972.7671800679145235
 30
0.0
  0
VERTEX
  5
2A0D
  8
CUT_LINES
 10
-344.4436660148140277
 20
968.7671800679637499
 30
0.0
  0
VERTEX
  5
2A0E
  8
CUT_LINES
 10
-348.4436103694616236
 20
968.7671999355113712
 30
0.0
  0
SEQEND
  5
2A0F
  8
CUT_LINES
  0
CIRCLE
  5
24FF
  8
HOLES
 10
-29.6248991197109
 20
715.688357480000036
 30
0.0
 40
0.75
  0
CIRCLE
  5
2500
  8
HOLES
 10
212.710691200579987
 20
715.6883574800001497
 30
0.0
 40
1.5
  0
CIRCLE
  5
2525
  8
HILES_4MM
 10
-505.0643507964924765
 20
878.4841629067148006
 30
0.0
 40
2.0
  0
CIRCLE
  5
2527
  8
HILES_4MM
 10
-505.0942511287182128
 20
986.4840138980366646
 30
0.0
 40
2.0
  0
CIRCLE
  5
2528
  8
HILES_4MM
 10
-505.064350796492306
 20
1094.4841629067138911
 30
0.0
 40
2.0
  0
CIRCLE
  5
2529
  8
HILES_4MM
 10
-658.5643507964922492
 20
1094.4841629067138911
 30
0.0
 40
2.0
  0
CIRCLE
  5
252A
  8
HILES_4MM
 10
-658.5943719085876182
 20
1021.4839765605779576
 30
0.0
 40
2.0
  0
CIRCLE
  5
252B
  8
HILES_4MM
 10
-658.594251128718156
 20
951.4839765606825495
 30
0.0
 40
2.0
  0
CIRCLE
  5
252C
  8
HILES_4MM
 10
-658.5643507964922492
 20
878.4841629067144595
 30
0.0
 40
2.0
  0
CIRCLE
  5
252E
  8
HILES_4MM
 10
-479.4446289074800234
 20
817.2671519787189709
 30
0.0
 40
2.0
  0
CIRCLE
  5
252F
  8
HILES_4MM
 10
-371.444777916158273
 20
817.297052310944764
 30
0.0
 40
2.0
  0
CIRCLE
  5
2530
  8
HILES_4MM
 10
-263.4446289074801939
 20
817.2671519787189709
 30
0.0
 40
2.0
  0
CIRCLE
  5
2531
  8
HILES_4MM
 10
-263.4446289074804781
 20
970.7671519787189709
 30
0.0
 40
2.0
  0
CIRCLE
  5
2532
  8
HILES_4MM
 10
-336.4448152536164116
 20
970.7971730908141126
 30
0.0
 40
2.0
  0
CIRCLE
  5
2533
  8
HILES_4MM
 10
-406.4448152535122745
 20
970.797052310944764
 30
0.0
 40
2.0
  0
CIRCLE
  5
2534
  8
HILES_4MM
 10
-479.4446289074800802
 20
970.7671519787189709
 30
0.0
 40
2.0
  0
CIRCLE
  5
2535
  8
HILES_4MM
 10
-137.6433554018798873
 20
816.2213143886485796
 30
0.0
 40
2.0
  0
CIRCLE
  5
2536
  8
HILES_4MM
 10
-29.6435044105581902
 20
816.2512147208743727
 30
0.0
 40
2.0
  0
CIRCLE
  5
2537
  8
HILES_4MM
 10
78.3566445981198285
 20
816.2213143886483522
 30
0.0
 40
2.0
  0
CIRCLE
  5
2538
  8
HILES_4MM
 10
78.3566445981195443
 20
892.9713143886485796
 30
0.0
 40
2.0
  0
CIRCLE
  5
253A
  8
HILES_4MM
 10
-29.6905699817452806
 20
969.7209451712629971
 30
0.0
 40
2.0
  0
CIRCLE
  5
253B
  8
HILES_4MM
 10
-137.6433554018801999
 20
892.9713143886485796
 30
0.0
 40
2.0
  0
CIRCLE
  5
253C
  8
HILES_4MM
 10
-480.4773901735758841
 20
992.8446646786442216
 30
0.0
 40
2.0
  0
CIRCLE
  5
253D
  8
HILES_4MM
 10
-372.4775391822543043
 20
992.8745650108697873
 30
0.0
 40
2.0
  0
CIRCLE
  5
253E
  8
HILES_4MM
 10
-264.4773901735763957
 20
992.8446646786439942
 30
0.0
 40
2.0
  0
CIRCLE
  5
253F
  8
HILES_4MM
 10
-264.4773901735765094
 20
1146.3446646786439942
 30
0.0
 40
2.0
  0
CIRCLE
  5
2540
  8
HILES_4MM
 10
-337.477576519712386
 20
1146.3746857907390222
 30
0.0
 40
2.0
  0
CIRCLE
  5
2541
  8
HILES_4MM
 10
-407.4775765196084194
 20
1146.374565010869901
 30
0.0
 40
2.0
  0
CIRCLE
  5
2542
  8
HILES_4MM
 10
-480.477390173576282
 20
1146.3446646786439942
 30
0.0
 40
2.0
  0
CIRCLE
  5
2543
  8
HILES_4MM
 10
107.4443284127680016
 20
808.1281056387952049
 30
0.0
 40
2.0
  0
CIRCLE
  5
2544
  8
HILES_4MM
 10
215.4441794040899083
 20
808.1580059710212254
 30
0.0
 40
2.0
  0
CIRCLE
  5
2545
  8
HILES_4MM
 10
323.4443284127677884
 20
808.1281056387952049
 30
0.0
 40
2.0
  0
CIRCLE
  5
2546
  8
HILES_4MM
 10
323.4443284127676179
 20
961.6281056387952049
 30
0.0
 40
2.0
  0
CIRCLE
  5
2547
  8
HILES_4MM
 10
250.4441420666315992
 20
961.6581267508903466
 30
0.0
 40
2.0
  0
CIRCLE
  5
2548
  8
HILES_4MM
 10
180.4441420667357079
 20
961.6580059710212254
 30
0.0
 40
2.0
  0
CIRCLE
  5
2549
  8
HILES_4MM
 10
107.4443284127678027
 20
961.6281056387952049
 30
0.0
 40
2.0
  0
CIRCLE
  5
254A
  8
HILES_4MM
 10
104.758054789123193
 20
638.9387271977088858
 30
0.0
 40
2.0
  0
CIRCLE
  5
254B
  8
HILES_4MM
 10
212.7579057804449008
 20
638.9686275299346789
 30
0.0
 40
2.0
  0
CIRCLE
  5
254C
  8
HILES_4MM
 10
320.7580547891229799
 20
638.9387271977087721
 30
0.0
 40
2.0
  0
CIRCLE
  5
254D
  8
HILES_4MM
 10
320.7580547891228093
 20
792.4387271977087721
 30
0.0
 40
2.0
  0
CIRCLE
  5
254E
  8
HILES_4MM
 10
247.7578684429867906
 20
792.4687483098039138
 30
0.0
 40
2.0
  0
CIRCLE
  5
254F
  8
HILES_4MM
 10
177.757868443090814
 20
792.4686275299346789
 30
0.0
 40
2.0
  0
CIRCLE
  5
2550
  8
HILES_4MM
 10
104.7580547891229941
 20
792.4387271977087721
 30
0.0
 40
2.0
  0
CIRCLE
  5
2551
  8
HILES_4MM
 10
-137.596140822015002
 20
638.9387266973859596
 30
0.0
 40
2.0
  0
CIRCLE
  5
2552
  8
HILES_4MM
 10
-29.5962898306932516
 20
638.9686270296118664
 30
0.0
 40
2.0
  0
CIRCLE
  5
2553
  8
HILES_4MM
 10
78.4038591779847565
 20
638.9387266973859596
 30
0.0
 40
2.0
  0
CIRCLE
  5
2554
  8
HILES_4MM
 10
78.4038591779845433
 20
792.4387266973860733
 30
0.0
 40
2.0
  0
CIRCLE
  5
2556
  8
HILES_4MM
 10
-29.6433554018803385
 20
792.4383574800001497
 30
0.0
 40
2.0
  0
CIRCLE
  5
2557
  8
HILES_4MM
 10
-137.5961408220152009
 20
792.4387266973860733
 30
0.0
 40
2.0
  0
CIRCLE
  5
2558
  8
HILES_4MM
 10
-137.6433554018798873
 20
969.7213143886483522
 30
0.0
 40
2.0
  0
CIRCLE
  5
2559
  8
HILES_4MM
 10
78.3566445981197859
 20
969.7213143886485796
 30
0.0
 40
2.0
  0
CIRCLE
  5
255A
  8
HILES_4MM
 10
-137.6433554018803989
 20
715.688357480000036
 30
0.0
 40
2.0
  0
CIRCLE
  5
255B
  8
HILES_4MM
 10
78.3566445981193738
 20
715.6883574800001497
 30
0.0
 40
2.0
  0
LINE
  5
257B
  8
CONSTRUCT
 10
-679.4657745881829669
 20
714.88788347998468
 30
0.0
 11
-219.4657745881831943
 21
714.88788347998468
 31
0.0
  0
LINE
  5
257C
  8
CONSTRUCT
 10
-219.4657745881831943
 20
714.88788347998468
 30
0.0
 11
-219.4657745881831943
 21
1174.887883479985021
 31
0.0
  0
LINE
  5
257D
  8
CONSTRUCT
 10
-219.4657745881831943
 20
1174.887883479985021
 30
0.0
 11
-679.4657745881829669
 21
1174.887883479985021
 31
0.0
  0
LINE
  5
257E
  8
CONSTRUCT
 10
-679.4657745881829669
 20
1174.887883479985021
 30
0.0
 11
-679.4657745881829669
 21
714.88788347998468
 31
0.0
  0
LINE
  5
257F
  8
CONSTRUCT
 10
-679.4657745881829669
 20
714.88788347998468
 30
0.0
 11
-679.4657745881829669
 21
714.88788347998468
 31
0.0
  0
VIEWPORT
  5
202F
 67
     1
  8
0
 10
5.7397890083854097
 20
3.954541619824226
 30
0.0
 40
13.0767036704453599
 41
8.8381283044238881
 68
     1
 69
     1
1001
ACAD
1000
MVIEW
1002
{
1070
    16
1010
0.0
1020
0.0
1030
0.0
1010
0.0
1020
0.0
1030
1.0
1040
0.0
1040
8.8381283044238881
1040
5.7397890083854097
1040
3.954541619824226
1040
50.0
1040
0.0
1040
0.0
1070
     0
1070
  2000
1070
     1
1070
     1
1070
     0
1070
     0
1070
     0
1070
     0
1040
0.0
1040
0.0
1040
0.0
1040
10.0
1040
10.0
1040
10.0
1040
10.0
1070
     0
1002
{
1002
}
1002
}
  0
VIEWPORT
  5
2031
 67
     1
  8
CONSTRUCT
 10
5.678783843854263
 20
3.9657101495798202
 30
0.0
 40
11.0924701649828403
 41
7.6922195872219827
 68
     2
 69
     2
1001
ACAD
1000
MVIEW
1002
{
1070
    16
1010
0.0
1020
0.0
1030
0.0
1010
0.0
1020
0.0
1030
1.0
1040
0.0
1040
776.2372338798996907
1040
403.2312072413340047
1040
116.2162389916395
1040
50.0
1040
0.0
1040
0.0
1070
     0
1070
  2000
1070
     1
1070
     3
1070
     0
1070
     0
1070
     0
1070
     1
1040
0.0
1040
0.0
1040
0.0
1040
10.0
1040
10.0
1040
10.0
1040
10.0
1070
     0
1002
{
1003
HOLES
1002
}
1002
}
  0
ENDSEC
  0
EOF
